<svg width="30" height="30" viewBox="0 0 30 30" fill="none" xmlns="http://www.w3.org/2000/svg">
<g id="Frame" clip-path="url(#clip0_437_28673)">
<path id="Vector" d="M14.5302 9.0275C13.4352 9.0275 11.7402 7.7825 9.9552 7.8275C7.6002 7.8575 5.4402 9.1925 4.2252 11.3075C1.7802 15.5525 3.5952 21.8225 5.9802 25.2725C7.1502 26.9525 8.5302 28.8425 10.3602 28.7825C12.1152 28.7075 12.7752 27.6425 14.9052 27.6425C17.0202 27.6425 17.6202 28.7825 19.4802 28.7375C21.3702 28.7075 22.5702 27.0275 23.7252 25.3325C25.0602 23.3825 25.6152 21.4925 25.6452 21.3875C25.6002 21.3725 21.9702 19.9775 21.9252 15.7775C21.8952 12.2675 24.7902 10.5875 24.9252 10.5125C23.2752 8.0975 20.7402 7.8275 19.8552 7.7675C17.5452 7.5875 15.6102 9.0275 14.5302 9.0275ZM18.4302 5.4875C19.4052 4.3175 20.0502 2.6825 19.8702 1.0625C18.4752 1.1225 16.7952 1.9925 15.7902 3.1625C14.8902 4.1975 14.1102 5.8625 14.3202 7.4525C15.8652 7.5725 17.4552 6.6575 18.4302 5.4875Z" fill="#92929D"/>
</g>
<defs>
<clipPath id="clip0_437_28673">
<rect width="30" height="30" fill="white"/>
</clipPath>
</defs>
</svg>
