<svg width="32" height="32" viewBox="0 0 32 32" fill="none" xmlns="http://www.w3.org/2000/svg">
<g id="band" clip-path="url(#clip0_437_31062)">
<g id="Group">
<path id="Vector" d="M16 32C24.8366 32 32 24.8366 32 16C32 7.16344 24.8366 0 16 0C7.16344 0 0 7.16344 0 16C0 24.8366 7.16344 32 16 32Z" fill="#516AFF"/>
<g id="Group_2">
<path id="Vector_2" d="M18.286 12.479L20.486 13.736V7.45L16.086 5.25L9.25 9.1V22.771L16.086 26.7L22.843 22.693V15.936L16.321 12.007L14.121 13.107L20.643 16.957L20.721 21.593L16.086 24.186L11.371 21.514V10.2L16.086 7.607L18.286 8.786V12.479Z" fill="white"/>
<path id="Vector_3" d="M15.8501 16.2491L17.3431 15.4631L18.9931 16.4851L14.1211 19.2351V13.5781L15.8501 14.5991" fill="white"/>
</g>
</g>
</g>
<defs>
<clipPath id="clip0_437_31062">
<rect width="32" height="32" fill="white"/>
</clipPath>
</defs>
</svg>
