<svg width="24" height="25" viewBox="0 0 24 25" fill="none" xmlns="http://www.w3.org/2000/svg">
<g id="bank-line 1" clip-path="url(#clip0_437_27912)">
<path id="Vector" d="M2 20.5H22V22.5H2V20.5ZM4 12.5H6V19.5H4V12.5ZM9 12.5H11V19.5H9V12.5ZM13 12.5H15V19.5H13V12.5ZM18 12.5H20V19.5H18V12.5ZM2 7.5L12 2.5L22 7.5V11.5H2V7.5ZM4 8.736V9.5H20V8.736L12 4.736L4 8.736ZM12 8.5C11.7348 8.5 11.4804 8.39464 11.2929 8.20711C11.1054 8.01957 11 7.76522 11 7.5C11 7.23478 11.1054 6.98043 11.2929 6.79289C11.4804 6.60536 11.7348 6.5 12 6.5C12.2652 6.5 12.5196 6.60536 12.7071 6.79289C12.8946 6.98043 13 7.23478 13 7.5C13 7.76522 12.8946 8.01957 12.7071 8.20711C12.5196 8.39464 12.2652 8.5 12 8.5Z" fill="white"/>
</g>
<defs>
<clipPath id="clip0_437_27912">
<rect width="24" height="24" fill="white" transform="translate(0 0.5)"/>
</clipPath>
</defs>
</svg>
