<svg width="134" height="169" viewBox="0 0 134 169" fill="none" xmlns="http://www.w3.org/2000/svg">
<g id="Card 3 Mask">
<mask id="mask0_437_27983" style="mask-type:alpha" maskUnits="userSpaceOnUse" x="0" y="0" width="134" height="169">
<rect id="bg" x="0.320312" width="133.179" height="169" rx="30" fill="#ED713C"/>
</mask>
<g mask="url(#mask0_437_27983)">
<circle id="Ellipse 2" opacity="0.1" cx="-25.3975" cy="177.267" r="85.788" fill="black" stroke="black" stroke-width="36"/>
<g id="Group 3721">
<g id="Group 3720">
<g id="Group 3719">
<path id="Path 3228" d="M42.026 132.587V132.623V132.587ZM16 133.417V138.45H25.272V133.417H16ZM28.781 145.934V144.874H28.141C27.3801 144.873 26.6505 144.571 26.1125 144.033C25.5744 143.494 25.2718 142.765 25.271 142.004V139.245H16V142.751C16 143.178 16.084 143.6 16.2473 143.994C16.4106 144.389 16.6499 144.747 16.9516 145.048C17.2533 145.35 17.6115 145.589 18.0057 145.753C18.3998 145.916 18.8223 146 19.249 146L28.781 145.934ZM32.821 133.417V138.45H42.093V133.417H32.821ZM32.026 139.245V130C32.0257 129.449 31.8068 128.921 31.4174 128.532C31.0279 128.142 30.4998 127.923 29.949 127.923H28.715V126H18.851C18.095 126.001 17.3703 126.302 16.8359 126.837C16.3014 127.371 16.0008 128.096 16 128.852V132.623H26.066V142C26.0665 142.55 26.2854 143.078 26.6746 143.467C27.0638 143.857 27.5916 144.075 28.142 144.076H29.576V145.864H39.241C39.9972 145.863 40.7221 145.562 41.2568 145.028C41.7915 144.493 42.0922 143.768 42.093 143.012V139.241L32.026 139.245ZM16 133.417V138.45H25.272V133.417H16ZM16 133.417V138.45H25.272V133.417H16Z" fill="#E0E0E0"/>
<path id="Path 3229" d="M42.0268 129.249V132.622H32.8218V129.997C32.8205 129.236 32.5174 128.507 31.9791 127.968C31.4407 127.43 30.711 127.127 29.9498 127.126H29.5098V126.066H38.8438C39.6877 126.067 40.4968 126.403 41.0936 127C41.6904 127.596 42.026 128.405 42.0268 129.249Z" fill="#E0E0E0"/>
</g>
</g>
</g>
<path id="Ellipse 1" opacity="0.1" d="M254.189 -24.3387C254.189 38.2937 212.748 83.0336 168.401 83.0336C124.055 83.0336 82.6133 38.2937 82.6133 -24.3387C82.6133 -86.9711 124.055 -131.711 168.401 -131.711C212.748 -131.711 254.189 -86.9711 254.189 -24.3387Z" fill="black" stroke="black" stroke-width="36"/>
</g>
</g>
</svg>
