<svg width="61" height="61" viewBox="0 0 61 61" fill="none" xmlns="http://www.w3.org/2000/svg">
<g id="Group">
<path id="Vector" d="M30.4954 60.6035C47.1272 60.6035 60.6099 47.1201 60.6099 30.4873C60.6099 13.8546 47.1272 0.371094 30.4954 0.371094C13.8636 0.371094 0.380859 13.8546 0.380859 30.4873C0.380859 47.1201 13.8636 60.6035 30.4954 60.6035Z" fill="#F7931A"/>
<path id="Vector_2" d="M44.0262 26.7598C44.6172 22.8146 41.6114 20.6933 37.5045 19.2778L38.8371 13.9322L35.5847 13.1228L34.286 18.3273C33.4315 18.1127 32.5544 17.9132 31.6792 17.7137L32.9873 12.4753L29.735 11.6641L28.4024 17.0078C27.6947 16.8459 26.9983 16.6878 26.3245 16.5184L26.3283 16.5015L21.8412 15.3815L20.9754 18.8562C20.9754 18.8562 23.3902 19.4096 23.3394 19.4435C24.6569 19.7729 24.8941 20.6443 24.8545 21.337L23.3375 27.4261C23.4279 27.4487 23.5446 27.4826 23.6763 27.5334L23.3319 27.4487L21.205 35.9791C21.0432 36.3782 20.6347 36.9786 19.7125 36.7509C19.7464 36.7979 17.3485 36.1617 17.3485 36.1617L15.7336 39.8848L19.9685 40.9408C20.7552 41.1384 21.5269 41.3455 22.2854 41.5394L20.9397 46.9452L24.1901 47.7546L25.5227 42.409C26.4111 42.648 27.2731 42.8701 28.1163 43.0809L26.7875 48.404L30.0399 49.2133L31.3856 43.8188C36.9342 44.8691 41.1051 44.4456 42.8611 39.4275C44.2765 35.3881 42.7915 33.056 39.8723 31.537C41.9991 31.0476 43.5989 29.6491 44.0262 26.7598ZM36.5917 37.1838C35.5885 41.225 28.7845 39.0397 26.5786 38.492L28.3667 31.33C30.5725 31.8815 37.6438 32.9713 36.5917 37.1838ZM37.5986 26.7015C36.682 30.3775 31.0205 28.5084 29.1854 28.0511L30.804 21.5572C32.6391 22.0146 38.5548 22.8673 37.5986 26.7015Z" fill="white"/>
</g>
</svg>
