<svg width="32" height="32" viewBox="0 0 32 32" fill="none" xmlns="http://www.w3.org/2000/svg">
<g id="btc">
<path id="Ellipse 2490" d="M16 32C24.8366 32 32 24.8366 32 16C32 7.16344 24.8366 0 16 0C7.16344 0 0 7.16344 0 16C0 24.8366 7.16344 32 16 32Z" fill="#F7931A"/>
<path id="Path 57345" d="M23.1892 14.02C23.5032 11.92 21.9062 10.797 19.7242 10.045L20.4322 7.205L18.7002 6.775L18.0102 9.54C17.5562 9.426 17.0902 9.32 16.6252 9.214L17.3202 6.431L15.6002 6L14.8922 8.839C14.5162 8.753 14.1462 8.669 13.7922 8.579V8.57L11.4082 7.97L10.9482 9.816C10.9482 9.816 12.2312 10.11 12.2042 10.128C12.4427 10.159 12.6595 10.2822 12.8083 10.4712C12.9571 10.6602 13.026 10.8999 13.0002 11.139L12.2002 14.374C12.2613 14.3893 12.3214 14.4083 12.3802 14.431L12.1972 14.386L11.0672 18.918C11.0422 18.9971 11.0018 19.0705 10.9483 19.1339C10.8949 19.1973 10.8295 19.2496 10.7558 19.2877C10.6821 19.3258 10.6017 19.349 10.519 19.3559C10.4363 19.3628 10.3531 19.3533 10.2742 19.328C10.2922 19.353 9.01816 19.015 9.01816 19.015L8.16016 20.993L10.4102 21.554C10.8282 21.654 11.2382 21.769 11.6412 21.872L10.9262 24.744L12.6532 25.174L13.3612 22.334C13.8332 22.461 14.2912 22.579 14.7392 22.691L14.0332 25.519L15.7612 25.949L16.4762 23.083C19.4242 23.641 21.6402 23.416 22.5762 20.75C23.3282 18.604 22.5392 17.365 20.9882 16.558C21.5847 16.438 22.1247 16.124 22.5239 15.6649C22.9231 15.2057 23.1592 14.6274 23.1952 14.02H23.1892ZM19.2392 19.558C18.7062 21.705 15.0912 20.544 13.9192 20.253L14.8692 16.448C16.0412 16.741 19.8002 17.32 19.2392 19.558ZM19.7742 13.989C19.2872 15.942 16.2792 14.949 15.3042 14.706L16.1642 11.256C17.1392 11.499 20.2822 11.956 19.7742 13.989Z" fill="white"/>
</g>
</svg>
