<svg width="16" height="16" viewBox="0 0 16 16" fill="none" xmlns="http://www.w3.org/2000/svg">
<g id="Frame" clip-path="url(#clip0_192_1913)">
<path id="Vector" d="M2.66683 10.6667V2.66671H1.3335V1.33337H3.3335C3.51031 1.33337 3.67988 1.40361 3.8049 1.52864C3.92992 1.65366 4.00016 1.82323 4.00016 2.00004V10H12.2922L13.6255 4.66671H5.3335V3.33337H14.4802C14.5815 3.33338 14.6815 3.35648 14.7726 3.40093C14.8636 3.44538 14.9434 3.51001 15.0057 3.5899C15.0681 3.66979 15.1114 3.76284 15.1324 3.86198C15.1533 3.96112 15.1515 4.06374 15.1268 4.16204L13.4602 10.8287C13.424 10.9729 13.3408 11.1008 13.2236 11.1923C13.1065 11.2837 12.9621 11.3334 12.8135 11.3334H3.3335C3.15669 11.3334 2.98712 11.2631 2.86209 11.1381C2.73707 11.0131 2.66683 10.8435 2.66683 10.6667ZM4.00016 15.3334C3.64654 15.3334 3.3074 15.1929 3.05735 14.9429C2.80731 14.6928 2.66683 14.3537 2.66683 14C2.66683 13.6464 2.80731 13.3073 3.05735 13.0572C3.3074 12.8072 3.64654 12.6667 4.00016 12.6667C4.35378 12.6667 4.69292 12.8072 4.94297 13.0572C5.19302 13.3073 5.3335 13.6464 5.3335 14C5.3335 14.3537 5.19302 14.6928 4.94297 14.9429C4.69292 15.1929 4.35378 15.3334 4.00016 15.3334ZM12.0002 15.3334C11.6465 15.3334 11.3074 15.1929 11.0574 14.9429C10.8073 14.6928 10.6668 14.3537 10.6668 14C10.6668 13.6464 10.8073 13.3073 11.0574 13.0572C11.3074 12.8072 11.6465 12.6667 12.0002 12.6667C12.3538 12.6667 12.6929 12.8072 12.943 13.0572C13.193 13.3073 13.3335 13.6464 13.3335 14C13.3335 14.3537 13.193 14.6928 12.943 14.9429C12.6929 15.1929 12.3538 15.3334 12.0002 15.3334Z" fill="#A4A8AB"/>
</g>
<defs>
<clipPath id="clip0_192_1913">
<rect width="16" height="16" fill="white"/>
</clipPath>
</defs>
</svg>
