<svg width="24" height="24" viewBox="0 0 24 24" fill="none" xmlns="http://www.w3.org/2000/svg">
<g id="Camera-Icon" clip-path="url(#clip0_437_31953)">
<path id="Vector" d="M9.82898 5L7.82898 7H4.00098V19H20.001V7H16.173L14.173 5H9.82898ZM9.00098 3H15.001L17.001 5H21.001C21.2662 5 21.5205 5.10536 21.7081 5.29289C21.8956 5.48043 22.001 5.73478 22.001 6V20C22.001 20.2652 21.8956 20.5196 21.7081 20.7071C21.5205 20.8946 21.2662 21 21.001 21H3.00098C2.73576 21 2.48141 20.8946 2.29387 20.7071C2.10633 20.5196 2.00098 20.2652 2.00098 20V6C2.00098 5.73478 2.10633 5.48043 2.29387 5.29289C2.48141 5.10536 2.73576 5 3.00098 5H7.00098L9.00098 3ZM12.001 18C10.5423 18 9.14334 17.4205 8.11189 16.3891C7.08044 15.3576 6.50098 13.9587 6.50098 12.5C6.50098 11.0413 7.08044 9.64236 8.11189 8.61091C9.14334 7.57946 10.5423 7 12.001 7C13.4597 7 14.8586 7.57946 15.8901 8.61091C16.9215 9.64236 17.501 11.0413 17.501 12.5C17.501 13.9587 16.9215 15.3576 15.8901 16.3891C14.8586 17.4205 13.4597 18 12.001 18ZM12.001 16C12.9292 16 13.8195 15.6313 14.4759 14.9749C15.1322 14.3185 15.501 13.4283 15.501 12.5C15.501 11.5717 15.1322 10.6815 14.4759 10.0251C13.8195 9.36875 12.9292 9 12.001 9C11.0727 9 10.1825 9.36875 9.5261 10.0251C8.86973 10.6815 8.50098 11.5717 8.50098 12.5C8.50098 13.4283 8.86973 14.3185 9.5261 14.9749C10.1825 15.6313 11.0727 16 12.001 16Z" fill="white"/>
</g>
<defs>
<clipPath id="clip0_437_31953">
<rect width="24" height="24" fill="white"/>
</clipPath>
</defs>
</svg>
