<svg width="30" height="28" viewBox="0 0 30 28" fill="none" xmlns="http://www.w3.org/2000/svg">
<g id="Frame" clip-path="url(#clip0_845_12792)">
<path id="Vector" d="M17.0486 3.44336H12.2633C9.72504 3.44336 7.29074 4.41073 5.49591 6.13265C3.70108 7.85458 2.69276 10.19 2.69276 12.6252C2.69276 15.0603 3.70108 17.3958 5.49591 19.1177C7.29074 20.8396 9.72504 21.807 12.2633 21.807V25.824C18.2449 23.5286 26.6191 20.0854 26.6191 12.6252C26.6191 10.19 25.6108 7.85458 23.816 6.13265C22.0212 4.41073 19.5869 3.44336 17.0486 3.44336ZM14.6559 19.5115H12.2633C11.3207 19.5115 10.3873 19.3334 9.51644 18.9873C8.64558 18.6413 7.85429 18.134 7.18776 17.4946C6.52123 16.8551 5.99251 16.096 5.63178 15.2605C5.27106 14.425 5.0854 13.5295 5.0854 12.6252C5.0854 11.7208 5.27106 10.8254 5.63178 9.98988C5.99251 9.15439 6.52123 8.39524 7.18776 7.75578C7.85429 7.11633 8.64558 6.60908 9.51644 6.26301C10.3873 5.91693 11.3207 5.73881 12.2633 5.73881H17.0486C18.9523 5.73881 20.778 6.46434 22.1241 7.75578C23.4703 9.04723 24.2265 10.7988 24.2265 12.6252C24.2265 16.7685 21.2812 19.4725 14.6559 22.3579V19.5115Z" fill="#E5E5E5"/>
</g>
<defs>
<clipPath id="clip0_845_12792">
<rect width="28.7117" height="27.5455" fill="white" transform="matrix(-1 0 0 1 29.0117 0)"/>
</clipPath>
</defs>
</svg>
