<svg width="35" height="35" viewBox="0 0 35 35" fill="none" xmlns="http://www.w3.org/2000/svg">
<g id="Frame">
<path id="Vector" d="M17.5 16.0849L21.0355 12.5494C21.4261 12.1588 22.0592 12.1588 22.4497 12.5494C22.8403 12.9399 22.8403 13.573 22.4497 13.9636L18.9142 17.4991L22.4497 21.0346C22.8403 21.4252 22.8403 22.0583 22.4497 22.4489C22.0592 22.8394 21.4261 22.8394 21.0355 22.4489L17.5 18.9133L13.9645 22.4489C13.5739 22.8394 12.9408 22.8394 12.5503 22.4489C12.1597 22.0583 12.1597 21.4252 12.5503 21.0346L16.0858 17.4991L12.5503 13.9636C12.1597 13.573 12.1597 12.9399 12.5503 12.5494C12.9408 12.1588 13.5739 12.1588 13.9645 12.5494L17.5 16.0849Z" fill="white"/>
</g>
</svg>
