<svg width="45" height="45" viewBox="0 0 45 45" fill="none" xmlns="http://www.w3.org/2000/svg">
<g id="Frame" clip-path="url(#clip0_437_29787)">
<g id="&#233;&#161;&#181;&#233;&#157;&#162;-1">
<g id="&#228;&#184;&#139;&#232;&#189;&#189;&#233;&#161;&#181;ios">
<g id="Coinhub-">
<g id="&#231;&#188;&#150;&#231;&#187;&#132;">
<path id="&#232;&#183;&#175;&#229;&#190;&#132;" d="M27.5788 19.8164C27.5788 19.8164 29.748 26.8547 38.2256 27.8318C39.6275 27.9933 41.2157 28.1681 42.8392 27.6839C42.9085 27.6883 42.976 27.7077 43.0371 27.7406C43.0983 27.7736 43.1518 27.8194 43.1939 27.8751C43.2359 27.9308 43.2656 27.9951 43.281 28.0634C43.2965 28.1317 43.297 28.2025 43.2828 28.2712C43.0441 29.9176 42.504 31.5047 41.6903 32.9514C39.632 36.6497 35.1114 41.5406 24.9037 43.262C24.3625 43.262 23.2933 42.7824 22.7965 42.8676C22.7965 42.8585 10.4861 31.9427 27.5788 19.8164Z" fill="#CFBFA3"/>
<path id="&#232;&#183;&#175;&#229;&#190;&#132;_2" d="M24.9043 43.2623C24.9043 43.2623 15.9876 30.3785 29.9883 23.7796L28.2448 21.4844C28.2448 21.4844 10.1141 30.8357 24.9043 43.2623Z" fill="#B9A798"/>
<path id="&#232;&#183;&#175;&#229;&#190;&#132;_3" d="M43.2852 28.2897C43.0085 30.0122 42.4237 31.6695 41.5596 33.1805L38.9688 27.913C40.1692 28.0745 41.3885 28.0122 42.5666 27.7293C43.13 27.5993 43.374 27.7875 43.2852 28.2897Z" fill="#8C6742"/>
<path id="&#232;&#183;&#175;&#229;&#190;&#132;_4" d="M28.411 31.8893C29.4081 31.8893 30.2165 31.0724 30.2165 30.0647C30.2165 29.0571 29.4081 28.2402 28.411 28.2402C27.4138 28.2402 26.6055 29.0571 26.6055 30.0647C26.6055 31.0724 27.4138 31.8893 28.411 31.8893Z" fill="#222222"/>
<path id="&#232;&#183;&#175;&#229;&#190;&#132;_5" d="M28.7516 4.56631L30.251 2.07381C27.7228 2.49838 25.2497 3.20813 22.878 4.18974C22.2557 4.24882 21.6369 4.34009 21.0238 4.46319L24.0271 1.5C21.0584 2.23409 18.3702 3.83718 16.2992 6.10842C15.9931 6.26084 15.6914 6.42672 15.4119 6.60154L17.7676 2.21727C14.5721 3.95846 12.0661 6.75674 10.6696 10.143L12.1247 5.03253C12.1247 5.03253 8.4471 7.8478 7.79498 14.7918C7.71068 14.9622 7.62639 15.1325 7.54654 15.3073L7.14729 9.08507C7.14729 9.08507 3.57172 14.8456 5.86966 21.3593L3.37208 15.0832C3.37208 15.0832 1.82384 20.0144 5.59018 26.407L1.5 21.6192C1.5 21.6192 1.89482 29.8812 6.57058 34.3507C6.57058 34.3507 8.25189 33.8442 9.28554 35.0455C10.9321 37.4655 13.1113 39.4669 15.6521 40.8927C18.1929 42.3184 21.0262 43.1297 23.9295 43.2627C24.1734 43.2627 24.6614 43.2627 24.6614 43.2627C24.6614 43.2627 15.9842 35.6911 24.3464 24.8828C32.7131 14.9352 43.5241 21.8523 43.4221 20.9602C42.9169 17.0442 41.242 13.3769 38.6208 10.4478C35.9996 7.51864 32.5567 5.46689 28.7516 4.56631Z" fill="#22A079"/>
<path id="&#232;&#183;&#175;&#229;&#190;&#132;_6" d="M21.0042 36.8606C21.0042 36.8606 11.4264 40.2362 2.52734 27.1641C3.48195 30.5939 5.19104 33.7615 7.52694 36.4302C10.7787 40.2094 17.2378 43.4908 24.9036 43.2533C23.9775 42.5303 23.205 41.6262 22.6321 40.5948C21.9705 39.4066 21.4251 38.1561 21.0042 36.8606Z" fill="#1B8061"/>
</g>
</g>
</g>
</g>
</g>
<defs>
<clipPath id="clip0_437_29787">
<rect width="45" height="45" fill="white"/>
</clipPath>
</defs>
</svg>
