<svg width="23" height="24" viewBox="0 0 23 24" fill="none" xmlns="http://www.w3.org/2000/svg">
<g id="Coin-Icon" clip-path="url(#clip0_437_29592)">
<path id="Vector" d="M11.5007 4C17.3225 4 22.0423 6.686 22.0423 10V14C22.0423 17.314 17.3225 20 11.5007 20C5.78228 20 1.12765 17.409 0.963776 14.177L0.958984 14V10C0.958984 6.686 5.67878 4 11.5007 4ZM11.5007 16C7.93565 16 4.78273 14.993 2.87565 13.45V14C2.87565 15.882 6.59686 18 11.5007 18C16.3019 18 19.9704 15.97 20.1209 14.118L20.1257 14L20.1266 13.45C18.2195 14.992 15.0666 16 11.5007 16ZM11.5007 6C6.59686 6 2.87565 8.118 2.87565 10C2.87565 11.882 6.59686 14 11.5007 14C16.4044 14 20.1257 11.882 20.1257 10C20.1257 8.118 16.4044 6 11.5007 6Z" fill="#674AFF"/>
</g>
<defs>
<clipPath id="clip0_437_29592">
<rect width="23" height="24" fill="white"/>
</clipPath>
</defs>
</svg>
