<svg width="16" height="16" viewBox="0 0 16 16" fill="none" xmlns="http://www.w3.org/2000/svg">
<g id="Dark-Icon" clip-path="url(#clip0_198_1079)">
<path id="Vector" d="M6.66732 4.66683C6.66718 5.59392 6.94319 6.50005 7.46014 7.26964C7.97708 8.03923 8.71154 8.6374 9.56984 8.98787C10.4281 9.33835 11.3714 9.42523 12.2792 9.23744C13.1871 9.04965 14.0185 8.59571 14.6673 7.9335V8.00016C14.6673 11.6822 11.6827 14.6668 8.00065 14.6668C4.31865 14.6668 1.33398 11.6822 1.33398 8.00016C1.33398 4.31816 4.31865 1.3335 8.00065 1.3335H8.06732C7.62334 1.76758 7.27075 2.28614 7.0303 2.85862C6.78986 3.4311 6.66644 4.04591 6.66732 4.66683ZM2.66732 8.00016C2.66683 9.19015 3.06434 10.3461 3.79658 11.2841C4.52882 12.2222 5.55374 12.8883 6.70826 13.1767C7.86278 13.4651 9.08057 13.359 10.1679 12.8755C11.2552 12.3919 12.1495 11.5586 12.7087 10.5082C11.7136 10.7426 10.6752 10.7189 9.69187 10.4393C8.70856 10.1597 7.81299 9.63355 7.09013 8.91069C6.36726 8.18783 5.84108 7.29226 5.56151 6.30895C5.28193 5.32564 5.25823 4.2872 5.49265 3.29216C4.63904 3.74692 3.92517 4.42527 3.42749 5.25459C2.9298 6.08391 2.66704 7.03297 2.66732 8.00016Z" fill="#F5F9FD"/>
</g>
<defs>
<clipPath id="clip0_198_1079">
<rect width="16" height="16" fill="white"/>
</clipPath>
</defs>
</svg>
