<svg width="66" height="66" viewBox="0 0 66 66" fill="none" xmlns="http://www.w3.org/2000/svg">
<g id="Dashboard">
<g id="Group 47860">
<path id="Ellipse 2822" d="M7.87008 49.097C6.40207 50.0374 4.43479 49.6153 3.63897 48.0642C1.43733 43.7731 0.197042 39.0393 0.0216093 34.194C-0.192006 28.2942 1.18102 22.4451 3.99752 17.2565C6.81403 12.068 10.9709 7.73003 16.0347 4.69493C21.0984 1.65983 26.8837 0.0387405 32.7873 0.000685586C38.6909 -0.0373694 44.4966 1.509 49.599 4.47857C54.7015 7.44814 58.914 11.7322 61.7971 16.884C64.6803 22.0358 66.1286 27.8667 65.991 33.7688C65.8781 38.616 64.6989 43.3653 62.5528 47.6844C61.777 49.2457 59.8154 49.6931 58.3354 48.7717C56.8553 47.8504 56.4214 45.9098 57.1616 44.3314C58.7308 40.9855 59.5929 37.3392 59.6795 33.6217C59.7907 28.8488 58.6195 24.1333 56.2879 19.9671C53.9563 15.8009 50.5498 12.3365 46.4235 9.93502C42.2971 7.53356 37.6021 6.28302 32.828 6.3138C28.0538 6.34457 23.3753 7.65553 19.2803 10.11C15.1853 12.5644 11.8237 16.0725 9.546 20.2684C7.26832 24.4644 6.15797 29.1945 6.33072 33.9656C6.46526 37.6816 7.37432 41.3165 8.98647 44.6419C9.747 46.2106 9.33809 48.1567 7.87008 49.097Z" fill="#0CAF60"/>
<path id="Ellipse 2825" d="M7.87008 49.097C6.40207 50.0374 4.43482 49.6154 3.639 48.0642C2.14733 45.1569 1.09305 42.0388 0.515614 38.8107C-0.247463 34.5448 -0.162834 30.1704 0.764668 25.9372C1.69217 21.704 3.44438 17.6949 5.92126 14.1389C8.39814 10.5829 11.5512 7.5495 15.2003 5.21201C18.8495 2.87453 22.9234 1.27869 27.1893 0.515614C31.4552 -0.247463 35.8296 -0.162834 40.0628 0.764668C44.296 1.69217 48.3051 3.44438 51.8611 5.92126C54.552 7.79555 56.9436 10.057 58.9609 12.6277C60.0372 13.9992 59.5979 15.9626 58.1299 16.903C56.6619 17.8433 54.7232 17.4011 53.6162 16.0543C52.0668 14.1694 50.2631 12.5019 48.2528 11.1017C45.3771 9.09868 42.135 7.68168 38.7116 6.93162C35.2883 6.18156 31.7507 6.11312 28.3009 6.73021C24.8511 7.34731 21.5566 8.63784 18.6056 10.5281C15.6546 12.4184 13.1047 14.8715 11.1017 17.7472C9.09868 20.6229 7.68168 23.865 6.93162 27.2884C6.18156 30.7117 6.11312 34.2493 6.73021 37.6991C7.1616 40.1107 7.92208 42.4464 8.98649 44.6419C9.74701 46.2106 9.33809 48.1567 7.87008 49.097Z" fill="#FB774A"/>
<path id="Ellipse 2824" d="M7.87008 49.097C6.40207 50.0374 4.43478 49.6153 3.63894 48.0642C0.95704 42.8371 -0.289716 36.9697 0.0566705 31.0669C0.403057 25.164 2.3275 19.4827 5.60235 14.6051C6.57414 13.1578 8.57729 12.9687 9.92524 14.0743C11.2732 15.1799 11.4517 17.1604 10.5129 18.6294C8.06581 22.4585 6.62732 26.8654 6.35907 31.4367C6.09083 36.0079 7.00402 40.5528 8.98645 44.6419C9.74698 46.2106 9.33809 48.1567 7.87008 49.097Z" fill="#D7372E"/>
</g>
<path id="Polygon 3" d="M14.9433 36.5405L32.5881 28.3403C34.5063 27.4488 36.7646 28.5036 37.3121 30.5468C37.8596 32.59 36.4312 34.6327 34.3242 34.8198L14.9433 36.5405Z" fill="#D9D9D9"/>
</g>
</svg>
