<svg width="24" height="24" viewBox="0 0 24 24" fill="none" xmlns="http://www.w3.org/2000/svg">
<g id="Design-Icon" clip-path="url(#clip0_437_29577)">
<path id="Vector" d="M14.121 9.87957C18.417 14.1746 20.95 18.6076 19.778 19.7796C19.303 20.2536 18.292 20.1196 16.971 19.5066C15.3824 20.5573 13.5016 21.0774 11.5989 20.9922C9.69614 20.9071 7.86936 20.221 6.38098 19.0326L6.34298 19.0726L4.92898 17.6576L4.96698 17.6176C3.77924 16.1294 3.09374 14.303 3.00894 12.4008C2.92414 10.4987 3.44439 8.61856 4.49498 7.03057C3.88098 5.70857 3.74698 4.69757 4.22198 4.22257C5.34998 3.09457 9.49898 5.39957 13.639 9.40457L14.121 9.87957ZM12.707 11.2936C10.823 9.40957 8.86998 7.84257 7.23598 6.87057L7.04998 7.05057C5.85991 8.24097 5.13849 9.82023 5.01784 11.4991C4.89718 13.178 5.38536 14.8442 6.39298 16.1926L8.23898 14.3466C8.12512 13.9214 8.15472 13.4705 8.32319 13.0638C8.49166 12.6572 8.78958 12.3174 9.17076 12.0973C9.55195 11.8772 9.9951 11.789 10.4315 11.8463C10.868 11.9037 11.2733 12.1034 11.5846 12.4146C11.896 12.7257 12.096 13.1309 12.1537 13.5673C12.2113 14.0036 12.1234 14.4469 11.9036 14.8282C11.6837 15.2095 11.3442 15.5077 10.9377 15.6765C10.5311 15.8452 10.0803 15.8751 9.65498 15.7616L7.80698 17.6076C9.15539 18.6155 10.8218 19.1038 12.5009 18.9831C14.1801 18.8625 15.7595 18.1409 16.95 16.9506L17.129 16.7626L17.076 16.6736C16.1 15.0586 14.556 13.1436 12.707 11.2936ZM19.778 4.22257C19.9769 4.42141 20.1317 4.65998 20.2322 4.92269C20.3327 5.18541 20.3766 5.46637 20.3611 5.74723C20.3456 6.02808 20.2711 6.30251 20.1424 6.55259C20.0136 6.80268 19.8336 7.0228 19.614 7.19857C20.3909 8.43233 20.857 9.83612 20.9723 11.2896C21.0876 12.743 20.8487 14.2027 20.276 15.5436C19.8633 14.7463 19.4004 13.9761 18.89 13.2376C19.0904 12.1263 19.0186 10.983 18.6808 9.90552C18.3429 8.82804 17.749 7.84845 16.95 7.05057C16.152 6.25165 15.1724 5.65788 14.095 5.32003C13.0175 4.98219 11.8743 4.91032 10.763 5.11057C10.0246 4.59997 9.25436 4.13702 8.45698 3.72457C9.79817 3.15175 11.2583 2.91283 12.7121 3.02831C14.1659 3.14379 15.57 3.61021 16.804 4.38757C16.9797 4.16823 17.1996 3.98838 17.4495 3.85975C17.6994 3.73111 17.9735 3.65658 18.2541 3.64102C18.5347 3.62545 18.8155 3.66919 19.078 3.7694C19.3406 3.8696 19.5791 4.02401 19.778 4.22257Z" fill="#FB774A"/>
</g>
<defs>
<clipPath id="clip0_437_29577">
<rect width="24" height="24" fill="white"/>
</clipPath>
</defs>
</svg>
