<svg width="19" height="18" viewBox="0 0 19 18" fill="none" xmlns="http://www.w3.org/2000/svg">
<g id="vuesax/linear/dislike">
<g id="dislike">
<path id="Vector" d="M12.9169 4.80226L10.637 3.10889C10.3428 2.82666 9.68093 2.68555 9.23966 2.68555H6.44499C5.56246 2.68555 4.60638 3.32056 4.38575 4.16724L2.62069 9.3179C2.25297 10.3057 2.91486 11.1524 4.01803 11.1524H6.95979C7.40106 11.1524 7.76878 11.5052 7.69524 11.9991L7.32752 14.2569C7.18043 14.8919 7.62169 15.5975 8.28359 15.8091C8.87194 16.0208 9.60739 15.7386 9.90156 15.3152L12.9169 11.0113" stroke="#E5E5E5" stroke-width="1.05835" stroke-miterlimit="10"/>
<path id="Vector_2" d="M16.6674 4.80347V11.7181C16.6674 12.7059 16.2262 13.0586 15.1966 13.0586H14.4611C13.4315 13.0586 12.9902 12.7059 12.9902 11.7181V4.80347C12.9902 3.81568 13.4315 3.46289 14.4611 3.46289H15.1966C16.2262 3.46289 16.6674 3.81568 16.6674 4.80347Z" stroke="#E5E5E5" stroke-width="1.05835" stroke-linecap="round" stroke-linejoin="round"/>
</g>
</g>
</svg>
