<svg width="180" height="180" viewBox="0 0 180 180" fill="none" xmlns="http://www.w3.org/2000/svg">
<g id="Group 40297">
<path id="Ellipse 2823" d="M20.109 134.769C16.8536 136.854 12.4977 135.917 10.6717 132.509C4.16861 120.374 0.521397 106.878 0.0518777 93.0554C-0.497047 76.8954 3.31771 60.886 11.0951 46.71C18.8726 32.5341 30.3254 20.7152 44.2497 12.4957C58.1741 4.27628 74.0556 -0.0401107 90.2248 0.00028081C106.394 0.0406724 122.254 4.43636 136.137 12.7253C150.02 21.0142 161.414 32.8901 169.12 47.1048C176.827 61.3194 180.561 77.3477 179.932 93.5047C179.393 107.325 175.679 120.802 169.115 132.905C167.272 136.303 162.911 137.219 159.666 135.117L156.982 133.379C153.737 131.278 152.844 126.956 154.624 123.525C159.543 114.042 162.329 103.566 162.747 92.835C163.256 79.7654 160.235 66.7999 154.001 55.3015C147.767 43.8031 138.551 34.1965 127.321 27.4915C116.091 20.7865 103.261 17.2308 90.1819 17.1981C77.1024 17.1654 64.2556 20.657 52.992 27.3058C41.7285 33.9546 32.4641 43.5151 26.1729 54.9822C19.8816 66.4493 16.7958 79.3995 17.2398 92.4715C17.6044 103.205 20.3377 113.695 25.2094 123.201C26.9725 126.642 26.0572 130.959 22.8018 133.044L20.109 134.769Z" fill="#3D3E52"/>
<path id="Ellipse 2822" d="M21.4639 133.901C17.4602 136.466 12.095 135.315 9.92453 131.084C5.33407 122.137 2.26605 112.465 0.86755 102.466C-0.929319 89.6187 0.072414 76.5347 3.80411 64.1105C7.53581 51.6862 13.9093 40.2156 22.4878 30.4844C31.0663 20.7533 41.6471 12.9916 53.5053 7.73133C65.3634 2.47101 78.2186 -0.163653 91.19 0.00786701C104.161 0.179387 116.942 3.15303 128.657 8.72506C140.372 14.2971 150.744 22.3358 159.062 32.2904C165.536 40.038 170.647 48.8036 174.199 58.2114C175.878 62.6596 173.131 67.4094 168.543 68.6562C163.954 69.9031 159.271 67.1678 157.492 62.7588C154.655 55.7313 150.732 49.1731 145.85 43.3308C139.123 35.2806 130.735 28.7798 121.262 24.2738C111.788 19.7678 101.452 17.363 90.9623 17.2243C80.4725 17.0856 70.0766 19.2162 60.4871 23.4702C50.8975 27.7241 42.3409 34.0009 35.4036 41.8704C28.4662 49.7399 23.3121 59.0161 20.2943 69.0634C17.2765 79.1107 16.4664 89.6917 17.9195 100.081C18.9741 107.621 21.2026 114.931 24.5086 121.751C26.5828 126.029 25.4675 131.336 21.4639 133.901Z" fill="#FFAA35"/>
<path id="Ellipse 2825" d="M21.4639 133.901C17.4602 136.466 12.0949 135.314 9.92442 131.084C3.15342 117.887 -0.27178 103.178 0.0168376 88.2592C0.361141 70.4622 5.97513 53.167 16.1489 38.5606C26.3226 23.9542 40.5992 12.6927 57.1733 6.20021C71.0667 0.757752 86.0515 -1.12869 100.777 0.647547C105.498 1.21692 108.437 5.85052 107.42 10.4949C106.402 15.1394 101.81 18.0253 97.0782 17.5629C85.6988 16.4509 74.1743 18.0323 63.4534 22.232C50.0501 27.4824 38.5048 36.5895 30.2774 48.4015C22.05 60.2135 17.51 74.2 17.2316 88.5922C17.0088 100.104 19.5207 111.462 24.5085 121.751C26.5826 126.029 25.4675 131.336 21.4639 133.901Z" fill="#02C39A"/>
<path id="Ellipse 2824" d="M21.4639 133.901C17.4602 136.466 12.0947 135.314 9.92413 131.084C0.424107 112.569 -2.40624 91.2383 2.08546 70.7378C6.57715 50.2373 18.0674 32.0438 34.4386 19.1976C38.1791 16.2625 43.5345 17.4602 46.099 21.4639C48.6636 25.4675 47.457 30.7551 43.7839 33.7742C31.2281 44.0942 22.4182 58.3856 18.9044 74.4228C15.3906 90.4601 17.4177 107.126 24.5082 121.75C26.5824 126.029 25.4675 131.336 21.4639 133.901Z" fill="#674AFF"/>
</g>
</svg>
