<svg width="6" height="4" viewBox="0 0 6 4" fill="none" xmlns="http://www.w3.org/2000/svg">
<path id="Path 56663" d="M3.0012 3.99999C3.08443 4.00001 3.16684 3.98196 3.24374 3.9469C3.32063 3.91183 3.39051 3.86042 3.44937 3.79562L5.81449 1.1908C5.93326 1.05998 6 0.882562 6 0.697559C6 0.512556 5.93326 0.335134 5.81449 0.204317C5.69571 0.0734997 5.53461 0 5.36663 0C5.19865 0 5.03756 0.0734997 4.91878 0.204317L3 1.80728L1.08122 0.204317C0.962443 0.0734999 0.801347 0 0.633368 0C0.46539 0 0.304275 0.0734999 0.185497 0.204317C0.0667178 0.335134 1.30064e-08 0.512556 0 0.697559C-1.30063e-08 0.882562 0.0667178 1.05998 0.185497 1.1908L2.55063 3.79562C2.60975 3.86077 2.68002 3.91239 2.75735 3.94747C2.83469 3.98255 2.91756 4.00039 3.0012 3.99999Z" fill="#A4A8AB"/>
</svg>
