<svg width="27" height="27" viewBox="0 0 27 27" fill="none" xmlns="http://www.w3.org/2000/svg">
<g id="eth">
<path id="Ellipse 2572" d="M13.7198 27C20.9848 27 26.8743 20.9558 26.8743 13.5C26.8743 6.04416 20.9848 0 13.7198 0C6.45486 0 0.56543 6.04416 0.56543 13.5C0.56543 20.9558 6.45486 27 13.7198 27Z" fill="#627EEA"/>
<g id="Group 19796">
<path id="Path 57463" d="M14.1309 3.375V10.8591L20.297 13.6856L14.1309 3.375Z" fill="white" fill-opacity="0.6"/>
<path id="Path 57464" d="M14.131 3.375L7.96484 13.6856L14.131 10.8591V3.375Z" fill="white"/>
<path id="Path 57465" d="M14.1309 18.5353V23.6248L20.297 14.8633L14.1309 18.5353Z" fill="white" fill-opacity="0.6"/>
<path id="Path 57466" d="M14.131 23.6248V18.5344L7.96484 14.8633L14.131 23.6248Z" fill="white"/>
<path id="Path 57467" d="M14.1309 17.3586L20.297 13.6857L14.1309 10.8608V17.3586Z" fill="white" fill-opacity="0.2"/>
<path id="Path 57468" d="M7.96484 13.6858L14.131 17.3587V10.8618L7.96484 13.6858Z" fill="white" fill-opacity="0.6"/>
</g>
</g>
</svg>
