<svg width="24" height="25" viewBox="0 0 24 25" fill="none" xmlns="http://www.w3.org/2000/svg">
<g id="Frame" clip-path="url(#clip0_437_28602)">
<path id="Vector" d="M12 24.5C18.6274 24.5 24 19.1274 24 12.5C24 5.87258 18.6274 0.5 12 0.5C5.37258 0.5 0 5.87258 0 12.5C0 19.1274 5.37258 24.5 12 24.5Z" fill="#3861FB"/>
<path id="Vector_2" d="M14.4964 10.7148H9.93795C10.3675 9.15779 11.4057 8.40494 12.7422 8.40494C13.7864 8.40494 14.5919 8.87262 15.1647 9.30608L16 7.60646C15.1169 6.89924 14.0191 6.5 12.7422 6.5C10.2064 6.5 8.29117 8.05133 7.70644 10.7148H6.47136L6 11.9297H7.53938C7.52745 12.1179 7.52148 12.3118 7.52148 12.5114C7.52148 12.6996 7.52745 12.8878 7.53938 13.0703H6.47136L6 14.3023H7.70644C8.29117 16.9601 10.2064 18.5 12.7422 18.5C13.9714 18.5 15.111 18.1407 15.9642 17.4335L15.1169 15.7338C14.5979 16.1331 13.7924 16.5951 12.7422 16.5951C11.3998 16.5951 10.3675 15.8593 9.93795 14.3023H12.778L13.3926 13.0703H9.74105C9.72912 12.8935 9.72315 12.7053 9.72315 12.5114C9.72315 12.3118 9.72912 12.1179 9.74105 11.9297H13.9177L14.4964 10.7148Z" fill="white"/>
</g>
<defs>
<clipPath id="clip0_437_28602">
<rect width="24" height="24" fill="white" transform="translate(0 0.5)"/>
</clipPath>
</defs>
</svg>
