<svg width="31" height="24" viewBox="0 0 31 24" fill="none" xmlns="http://www.w3.org/2000/svg">
<g id="Fille-Icon" clip-path="url(#clip0_437_27357)">
<path id="Vector" d="M5.00198 2.003V2H16C16.552 2 17.002 2.455 17.002 2.992V21.008C17.0017 21.2712 16.897 21.5235 16.7108 21.7095C16.5246 21.8955 16.2722 22 16.009 22H-0.00502217C-0.136345 21.9991 -0.266201 21.9723 -0.387177 21.9212C-0.508152 21.8701 -0.617877 21.7957 -0.710086 21.7022C-0.802295 21.6087 -0.875183 21.4979 -0.924587 21.3762C-0.973991 21.2545 -0.998945 21.1243 -0.998022 20.993V8L5.00198 2.003ZM1.83198 8H5.00198V4.83L1.83198 8ZM7.00198 4V9C7.00198 9.26522 6.89662 9.51957 6.70908 9.70711C6.52155 9.89464 6.26719 10 6.00198 10H1.00198V20H15.002V4H7.00198Z" fill="#C2C2C2"/>
</g>
<defs>
<clipPath id="clip0_437_27357">
<rect width="30.4421" height="24" fill="white" transform="translate(0.294922)"/>
</clipPath>
</defs>
</svg>
