<svg width="32" height="32" viewBox="0 0 32 32" fill="none" xmlns="http://www.w3.org/2000/svg">
<g id="ftx 1" clip-path="url(#clip0_657_13885)">
<g id="Group">
<g id="Group_2">
<g id="Group_3">
<path id="SVGID_2_" d="M12.0195 24.8402V20.4883H16.3641V24.8402H12.0195Z" fill="#2E2E2E"/>
</g>
<g id="Group_4">
<path id="Vector" d="M14.9726 31.9991C6.15117 31.9991 -1 24.8359 -1 15.9995C-1 7.16322 6.15117 0 14.9726 0C23.7941 0 30.9452 7.16322 30.9452 15.9995C30.9452 24.8359 23.7941 31.9991 14.9726 31.9991Z" fill="#12181F"/>
</g>
</g>
<g id="Group 41057">
<g id="Group_5">
<g id="Group_6">
<path id="SVGID_5_" d="M11.4766 20.6523H15.8668V25.0499H11.4766V20.6523Z" fill="#ABEBF4"/>
</g>
</g>
<g id="Group_7">
<g id="Group_8">
<path id="SVGID_7_" d="M6 18.9327V14.5352H10.3902V18.9327H6Z" fill="#5FCADE"/>
</g>
<g id="Group_9">
<path id="SVGID_8_" d="M11.4766 18.9327V14.5352H21.3248V18.9327H11.4766Z" fill="#5FCADE"/>
</g>
</g>
<g id="Group_10">
<g id="Group_11">
<path id="SVGID_11_" d="M11.4766 8.41992H24.9757V12.8175H11.4766V8.41992Z" fill="#02A6C2"/>
</g>
</g>
</g>
</g>
</g>
<defs>
<clipPath id="clip0_657_13885">
<rect width="32" height="32" fill="white"/>
</clipPath>
</defs>
</svg>
