<svg width="30" height="30" viewBox="0 0 30 30" fill="none" xmlns="http://www.w3.org/2000/svg">
<g id="Frame" clip-path="url(#clip0_437_28678)">
<path id="Vector" d="M4.51125 2.26758L17.24 15.0001L4.5125 27.7326C4.28618 27.6374 4.09304 27.4775 3.95737 27.2729C3.82169 27.0683 3.74955 26.8281 3.75 26.5826V3.41758C3.7501 3.17235 3.82232 2.93258 3.95768 2.72809C4.09304 2.52361 4.28555 2.36346 4.51125 2.26758ZM18.1238 15.8838L21.0013 18.7613L7.33 26.6776L18.1238 15.8838ZM22.1225 11.8863L25.6313 13.9188C25.8207 14.0287 25.9779 14.1864 26.0872 14.3762C26.1965 14.5659 26.254 14.7811 26.254 15.0001C26.254 15.2191 26.1965 15.4342 26.0872 15.624C25.9779 15.8137 25.8207 15.9714 25.6313 16.0813L22.1213 18.1138L19.0075 15.0001L22.1225 11.8863ZM7.33 3.32258L21.0025 11.2376L18.1238 14.1163L7.33 3.32258Z" fill="#92929D"/>
</g>
<defs>
<clipPath id="clip0_437_28678">
<rect width="30" height="30" fill="white"/>
</clipPath>
</defs>
</svg>
