<svg width="24" height="25" viewBox="0 0 24 25" fill="none" xmlns="http://www.w3.org/2000/svg">
<g id="google-line 1" clip-path="url(#clip0_803_10233)">
<path id="Vector" d="M12 11.1719H20.533C20.577 11.5629 20.6 11.9641 20.6 12.3744C20.6 15.1511 19.62 17.4891 17.922 19.0775C16.437 20.4699 14.404 21.2865 11.98 21.2865C10.8007 21.287 9.63279 21.0515 8.54311 20.5934C7.45344 20.1353 6.46332 19.4637 5.62936 18.6168C4.7954 17.7699 4.13394 16.7644 3.68278 15.6577C3.23162 14.5511 2.99961 13.365 3 12.1672C2.99948 10.9693 3.23139 9.78313 3.68249 8.67637C4.13359 7.5696 4.79503 6.56397 5.62901 5.71696C6.46298 4.86996 7.45314 4.19818 8.54288 3.74003C9.63262 3.28188 10.8006 3.04634 11.98 3.04688C14.4 3.04688 16.433 3.95078 17.988 5.42242L16.526 6.90625C15.368 5.76977 13.803 5.07813 12 5.07813C11.0807 5.07813 10.1705 5.26202 9.32122 5.6193C8.47194 5.97657 7.70026 6.50025 7.05025 7.16041C6.40024 7.82058 5.88463 8.60431 5.53284 9.46686C5.18106 10.3294 5 11.2539 5 12.1875C5 13.1211 5.18106 14.0456 5.53284 14.9081C5.88463 15.7707 6.40024 16.5544 7.05025 17.2146C7.70026 17.8748 8.47194 18.3984 9.32122 18.7557C10.1705 19.113 11.0807 19.2969 12 19.2969C15.526 19.2969 18.144 16.6481 18.577 13.2031H12V11.1719Z" fill="#0CAF60"/>
</g>
<defs>
<clipPath id="clip0_803_10233">
<rect width="24" height="24.375" fill="white"/>
</clipPath>
</defs>
</svg>
