<svg width="24" height="24" viewBox="0 0 24 24" fill="none" xmlns="http://www.w3.org/2000/svg">
<g id="Integrations-Icon" clip-path="url(#clip0_803_18557)">
<path id="Vector" d="M7.10495 8.7908C7.27841 9.42564 7.65575 9.98586 8.17885 10.3852C8.70196 10.7845 9.34184 11.0008 9.99995 11.0008H13.9999C15.178 11.0009 16.3182 11.4168 17.2195 12.1753C18.1209 12.9338 18.7255 13.9861 18.9269 15.1468C19.6056 15.3682 20.1832 15.8244 20.5558 16.4333C20.9285 17.0422 21.0719 17.7641 20.9602 18.4692C20.8486 19.1743 20.4892 19.8165 19.9466 20.2805C19.4041 20.7445 18.7139 20.9999 17.9999 21.0008C17.3015 21.0013 16.6247 20.7582 16.0863 20.3132C15.548 19.8682 15.1817 19.2493 15.0508 18.5632C14.9199 17.8771 15.0324 17.1668 15.3691 16.5549C15.7057 15.9429 16.2454 15.4675 16.8949 15.2108C16.7215 14.576 16.3441 14.0157 15.821 13.6164C15.2979 13.2171 14.6581 13.0008 13.9999 13.0008H9.99995C8.91784 13.0024 7.86468 12.6513 6.99995 12.0008V15.1708C7.66744 15.4067 8.23004 15.871 8.58831 16.4816C8.94657 17.0922 9.07743 17.8098 8.95776 18.5076C8.83808 19.2054 8.47558 19.8383 7.93432 20.2947C7.39306 20.751 6.7079 21.0013 5.99995 21.0013C5.29199 21.0013 4.60683 20.751 4.06557 20.2947C3.52431 19.8383 3.16181 19.2054 3.04213 18.5076C2.92246 17.8098 3.05332 17.0922 3.41159 16.4816C3.76985 15.871 4.33245 15.4067 4.99995 15.1708V8.8308C4.33692 8.59671 3.77715 8.13724 3.4183 7.53257C3.05945 6.9279 2.92432 6.21642 3.03648 5.52229C3.14864 4.82816 3.50098 4.19545 4.032 3.73457C4.56303 3.27369 5.23903 3.0139 5.94204 3.00054C6.64505 2.98718 7.33043 3.2211 7.87858 3.66147C8.42673 4.10185 8.80285 4.72071 8.9413 5.41008C9.07975 6.09945 8.97175 6.81555 8.63613 7.43342C8.30051 8.05129 7.7586 8.53169 7.10495 8.7908ZM5.99995 7.0008C6.26516 7.0008 6.51952 6.89545 6.70705 6.70791C6.89459 6.52037 6.99995 6.26602 6.99995 6.0008C6.99995 5.73559 6.89459 5.48123 6.70705 5.2937C6.51952 5.10616 6.26516 5.0008 5.99995 5.0008C5.73473 5.0008 5.48038 5.10616 5.29284 5.2937C5.1053 5.48123 4.99995 5.73559 4.99995 6.0008C4.99995 6.26602 5.1053 6.52037 5.29284 6.70791C5.48038 6.89545 5.73473 7.0008 5.99995 7.0008ZM5.99995 19.0008C6.26516 19.0008 6.51952 18.8954 6.70705 18.7079C6.89459 18.5204 6.99995 18.266 6.99995 18.0008C6.99995 17.7356 6.89459 17.4812 6.70705 17.2937C6.51952 17.1062 6.26516 17.0008 5.99995 17.0008C5.73473 17.0008 5.48038 17.1062 5.29284 17.2937C5.1053 17.4812 4.99995 17.7356 4.99995 18.0008C4.99995 18.266 5.1053 18.5204 5.29284 18.7079C5.48038 18.8954 5.73473 19.0008 5.99995 19.0008ZM17.9999 19.0008C18.2652 19.0008 18.5195 18.8954 18.7071 18.7079C18.8946 18.5204 18.9999 18.266 18.9999 18.0008C18.9999 17.7356 18.8946 17.4812 18.7071 17.2937C18.5195 17.1062 18.2652 17.0008 17.9999 17.0008C17.7347 17.0008 17.4804 17.1062 17.2928 17.2937C17.1053 17.4812 16.9999 17.7356 16.9999 18.0008C16.9999 18.266 17.1053 18.5204 17.2928 18.7079C17.4804 18.8954 17.7347 19.0008 17.9999 19.0008Z" fill="white"/>
</g>
<defs>
<clipPath id="clip0_803_18557">
<rect width="24" height="24" fill="white"/>
</clipPath>
</defs>
</svg>
