<svg width="24" height="24" viewBox="0 0 24 24" fill="none" xmlns="http://www.w3.org/2000/svg">
<g id="Frame" clip-path="url(#clip0_900_10946)">
<g id="Group">
<path id="Vector" d="M12 24C18.6274 24 24 18.6274 24 12C24 5.37258 18.6274 0 12 0C5.37258 0 0 5.37258 0 12C0 18.6274 5.37258 24 12 24Z" fill="#FFDA44"/>
<path id="Vector_2" d="M9.39067 10.4348H23.8978C23.1308 4.54697 18.0962 0 11.9994 0C11.1034 0 10.2306 0.0990469 9.39062 0.285234V10.4348H9.39067Z" fill="#0052B4"/>
<path id="Vector_3" d="M6.26084 10.4347V1.45898C2.96581 3.25682 0.607015 6.55452 0.101562 10.4347H6.26084Z" fill="#0052B4"/>
<path id="Vector_4" d="M6.26079 13.5645H0.101562C0.607015 17.4447 2.96581 20.7424 6.26084 22.5402L6.26079 13.5645Z" fill="#0052B4"/>
<path id="Vector_5" d="M9.39062 13.5646V23.7141C10.2306 23.9003 11.1034 23.9993 11.9994 23.9993C18.0962 23.9993 23.1308 19.4523 23.8978 13.5645H9.39062V13.5646Z" fill="#0052B4"/>
</g>
</g>
<defs>
<clipPath id="clip0_900_10946">
<rect width="24" height="24" fill="white"/>
</clipPath>
</defs>
</svg>
