<svg width="16" height="16" viewBox="0 0 16 16" fill="none" xmlns="http://www.w3.org/2000/svg">
<g id="Light-Icon" clip-path="url(#clip0_198_1082)">
<path id="Vector" d="M7.99935 11.9998C6.93848 11.9998 5.92107 11.5784 5.17092 10.8283C4.42078 10.0781 3.99935 9.0607 3.99935 7.99984C3.99935 6.93897 4.42078 5.92156 5.17092 5.17141C5.92107 4.42126 6.93848 3.99984 7.99935 3.99984C9.06021 3.99984 10.0776 4.42126 10.8278 5.17141C11.5779 5.92156 11.9993 6.93897 11.9993 7.99984C11.9993 9.0607 11.5779 10.0781 10.8278 10.8283C10.0776 11.5784 9.06021 11.9998 7.99935 11.9998ZM7.99935 10.6665C8.70659 10.6665 9.38487 10.3856 9.88497 9.88546C10.3851 9.38536 10.666 8.70708 10.666 7.99984C10.666 7.29259 10.3851 6.61432 9.88497 6.11422C9.38487 5.61412 8.70659 5.33317 7.99935 5.33317C7.2921 5.33317 6.61383 5.61412 6.11373 6.11422C5.61363 6.61432 5.33268 7.29259 5.33268 7.99984C5.33268 8.70708 5.61363 9.38536 6.11373 9.88546C6.61383 10.3856 7.2921 10.6665 7.99935 10.6665ZM7.33268 0.666504H8.66602V2.6665H7.33268V0.666504ZM7.33268 13.3332H8.66602V15.3332H7.33268V13.3332ZM2.34268 3.28584L3.28535 2.34317L4.69935 3.75717L3.75668 4.69984L2.34268 3.2865V3.28584ZM11.2993 12.2425L12.242 11.2998L13.656 12.7138L12.7133 13.6565L11.2993 12.2425ZM12.7133 2.3425L13.656 3.28584L12.242 4.69984L11.2993 3.75717L12.7133 2.34317V2.3425ZM3.75668 11.2998L4.69935 12.2425L3.28535 13.6565L2.34268 12.7138L3.75668 11.2998ZM15.3327 7.33317V8.6665H13.3327V7.33317H15.3327ZM2.66602 7.33317V8.6665H0.666016V7.33317H2.66602Z" fill="#F5F9FD"/>
</g>
<defs>
<clipPath id="clip0_198_1082">
<rect width="16" height="16" fill="white"/>
</clipPath>
</defs>
</svg>
