<svg width="24" height="24" viewBox="0 0 24 24" fill="none" xmlns="http://www.w3.org/2000/svg">
<g id="Frame" clip-path="url(#clip0_109_2263)">
<path id="Vector" d="M10.8998 2.09998L20.7988 3.51498L22.2128 13.415L13.0208 22.607C12.8333 22.7944 12.579 22.8998 12.3138 22.8998C12.0487 22.8998 11.7944 22.7944 11.6068 22.607L1.70685 12.707C1.51938 12.5194 1.41406 12.2651 1.41406 12C1.41406 11.7348 1.51938 11.4805 1.70685 11.293L10.8998 2.09998ZM11.6068 4.22198L3.82785 12L12.3138 20.485L20.0918 12.707L19.0318 5.28198L11.6068 4.22198ZM13.7268 10.586C13.3517 10.2107 13.141 9.70176 13.1411 9.17112C13.1411 8.90838 13.1929 8.64822 13.2935 8.40549C13.3941 8.16277 13.5415 7.94223 13.7273 7.75648C13.9132 7.57072 14.1338 7.42338 14.3765 7.32288C14.6193 7.22238 14.8795 7.17067 15.1422 7.17072C15.6728 7.17081 16.1817 7.38169 16.5568 7.75698C16.932 8.13226 17.1427 8.6412 17.1426 9.17183C17.1425 9.70246 16.9316 10.2113 16.5563 10.5865C16.1811 10.9616 15.6721 11.1723 15.1415 11.1722C14.6109 11.1721 14.102 10.9613 13.7268 10.586Z" fill="white"/>
</g>
<defs>
<clipPath id="clip0_109_2263">
<rect width="24" height="24" fill="white"/>
</clipPath>
</defs>
</svg>
