<svg width="24" height="24" viewBox="0 0 24 24" fill="none" xmlns="http://www.w3.org/2000/svg">
<g id="Live-Stream" clip-path="url(#clip0_437_28791)">
<path id="Vector" d="M4.92901 5L6.34301 6.414C5.59904 7.15608 5.00906 8.03786 4.60697 9.00868C4.20488 9.9795 3.99861 11.0202 4.00001 12.071C4.00001 14.281 4.89501 16.281 6.34301 17.728L4.93001 19.141C3.99998 18.2136 3.26237 17.1117 2.75954 15.8984C2.25672 14.6851 1.9986 13.3844 2.00001 12.071C1.99833 10.7575 2.25623 9.45669 2.75889 8.24321C3.26154 7.02974 3.99904 5.92755 4.92901 5ZM19.071 5C20.001 5.92755 20.7385 7.02974 21.2411 8.24321C21.7438 9.45669 22.0017 10.7575 22 12.071C22.0017 13.3845 21.7438 14.6853 21.2411 15.8988C20.7385 17.1123 20.001 18.2144 19.071 19.142L17.657 17.728C18.401 16.9859 18.991 16.1041 19.393 15.1333C19.7951 14.1625 20.0014 13.1218 20 12.071C20 9.861 19.105 7.861 17.657 6.414L19.07 5.001L19.071 5ZM7.75701 7.828L9.17201 9.243C8.79997 9.61392 8.50491 10.0547 8.30378 10.54C8.10264 11.0254 7.99941 11.5456 8.00001 12.071C8.00001 13.176 8.44801 14.176 9.17201 14.899L7.75701 16.314C7.19904 15.7574 6.75657 15.096 6.45504 14.3679C6.15352 13.6397 5.99888 12.8591 6.00001 12.071C6.00001 10.414 6.67201 8.914 7.75701 7.828ZM16.243 7.828C16.801 8.3846 17.2434 9.04599 17.545 9.77415C17.8465 10.5023 18.0011 11.2829 18 12.071C18.0011 12.8591 17.8465 13.6397 17.545 14.3679C17.2434 15.096 16.801 15.7574 16.243 16.314L14.828 14.899C15.2 14.5281 15.4951 14.0873 15.6962 13.602C15.8974 13.1166 16.0006 12.5964 16 12.071C16.0006 11.5456 15.8974 11.0254 15.6962 10.54C15.4951 10.0547 15.2 9.61392 14.828 9.243L16.243 7.828ZM12 14.071C11.4696 14.071 10.9609 13.8603 10.5858 13.4852C10.2107 13.1101 10 12.6014 10 12.071C10 11.5406 10.2107 11.0319 10.5858 10.6568C10.9609 10.2817 11.4696 10.071 12 10.071C12.5304 10.071 13.0391 10.2817 13.4142 10.6568C13.7893 11.0319 14 11.5406 14 12.071C14 12.6014 13.7893 13.1101 13.4142 13.4852C13.0391 13.8603 12.5304 14.071 12 14.071Z" fill="white"/>
</g>
<defs>
<clipPath id="clip0_437_28791">
<rect width="24" height="24" fill="white"/>
</clipPath>
</defs>
</svg>
