<svg width="42" height="40" viewBox="0 0 42 40" fill="none" xmlns="http://www.w3.org/2000/svg">
<g id="Group 8341">
<path id="Path 3763" d="M41.8147 18.9854C41.9388 18.0513 42.0007 17.1099 42 16.1676C42 15.9649 42 15.7659 41.9905 15.568C41.9821 15.2335 41.9684 14.9541 41.9482 14.6897C41.9 13.9646 41.8127 13.2427 41.6866 12.5272C41.6669 12.4073 41.6473 12.2952 41.627 12.1837C41.5919 11.9858 41.552 11.7874 41.5079 11.5949C41.4829 11.4786 41.4572 11.3623 41.4286 11.2526C41.3911 11.0889 41.3512 10.9253 41.3095 10.7688C40.2326 6.66513 37.9516 2.98334 34.764 0.20382L34.5305 0L34.3875 0.275761C34.1931 0.65162 34.0273 1.04186 33.8918 1.44306C33.6021 2.30662 33.4552 3.21215 33.4569 4.12358C33.4569 4.58813 33.4946 5.05189 33.5695 5.51029V5.59361L33.588 5.6122C33.6614 6.02469 33.766 6.43098 33.9008 6.82747C32.1843 6.54872 30.425 6.7367 28.805 7.37201C27.185 8.00731 25.7631 9.06683 24.6868 10.4408L24.4091 10.7934L24.8542 10.8383C24.8935 10.8425 28.8639 11.2418 32.4208 11.8006C33.9085 12.0229 35.3754 12.3686 36.8065 12.8342C36.8114 12.8345 36.8164 12.8345 36.8213 12.8342C36.8255 12.8342 36.8285 12.8378 36.8327 12.839C37.0384 12.8921 37.2177 13.0191 37.337 13.1959C37.4563 13.3728 37.5073 13.5874 37.4805 13.7994C37.4536 14.0114 37.3507 14.2063 37.1912 14.3474C37.0316 14.4884 36.8264 14.5661 36.614 14.5656H0.28837C0.269299 14.567 0.250484 14.5708 0.232369 14.577C0.198547 14.5809 0.16693 14.5958 0.142403 14.6196C0.137041 14.6238 0.130478 14.6262 0.125712 14.631C0.110993 14.6457 0.0982025 14.6622 0.087602 14.6801C0.0804979 14.689 0.0740958 14.6984 0.0685106 14.7083C0.062225 14.7246 0.0576629 14.7415 0.0548376 14.7587C0.0503124 14.7707 0.0469042 14.7831 0.0446919 14.7958C0.0154979 15.2449 0 15.7053 0 16.1634C0.0104967 17.3294 0.106479 18.493 0.28717 19.6449L0.321753 19.8493H12.2108C14.2001 19.8451 16.1471 20.4272 17.8113 21.5238C21.3199 24.0418 22.9489 30.1708 22.9655 30.235C23.0114 30.4029 24.1148 34.3664 26.5743 36.418C27.3685 37.1748 28.2549 37.8271 29.2124 38.3593C32.052 39.9365 35.3723 40.3971 38.5301 39.6519C38.5372 39.6519 38.542 39.6453 38.5492 39.6429C38.5639 39.6377 38.578 39.631 38.5914 39.6231C38.6071 39.6146 38.6217 39.6044 38.6349 39.5925C38.6403 39.5877 38.6474 39.5859 38.6522 39.5805C38.657 39.5751 38.6594 39.5667 38.6641 39.5607C38.6836 39.5354 38.698 39.5065 38.7064 39.4756C38.7105 39.4605 38.7131 39.445 38.7142 39.4294C38.7159 39.4131 38.7159 39.3966 38.7142 39.3803C38.7142 39.3719 38.7142 39.3641 38.7142 39.3557C38.7142 39.3473 38.7076 39.3431 38.7046 39.3359C38.6992 39.32 38.6923 39.3048 38.6838 39.2903C38.676 39.277 38.667 39.2643 38.657 39.2526C38.6516 39.2466 38.6493 39.2388 38.6433 39.2334C36.6845 37.3808 35.1818 35.0942 34.2547 32.5552C38.4074 29.172 41.1131 24.3155 41.8147 18.9854Z" fill="#0CAF60"/>
<g id="Group 20958">
<g id="Group 8336">
<g id="Group 8335">
<path id="Path 3764" d="M24.9739 36.9174C24.9769 36.9008 24.9781 36.8839 24.9775 36.867C24.9781 36.8581 24.9781 36.849 24.9775 36.84C24.9775 36.834 24.9727 36.8292 24.9715 36.8232C24.9679 36.8071 24.9625 36.7915 24.9554 36.7765C24.9494 36.7614 24.9418 36.7469 24.9328 36.7333C24.9292 36.7285 24.9287 36.7225 24.9245 36.7177C24.4136 36.0823 23.9576 35.4042 23.5613 34.6907C23.5496 34.6722 23.5354 34.6555 23.519 34.641C23.5147 34.6356 23.5101 34.6303 23.5053 34.6254C23.4848 34.6085 23.4616 34.5951 23.4368 34.5858C23.432 34.5858 23.4284 34.581 23.4237 34.5792C23.4031 34.5732 23.3819 34.5699 23.3605 34.5696C23.3509 34.5676 23.3411 34.5662 23.3313 34.5654C23.1883 34.5756 22.5437 34.5834 22.1171 34.5888C21.9336 34.5888 21.7852 34.593 21.7269 34.5942H21.5928C20.9767 34.6056 20.3494 34.587 19.7136 34.5342C17.127 34.3227 14.6157 33.5546 12.3496 32.2818C8.77071 30.2721 5.95893 27.1202 4.35821 23.3236C4.0774 22.6508 3.83687 21.9617 3.6379 21.26C3.6379 21.2552 3.63253 21.2516 3.63074 21.2468C3.62463 21.2308 3.61684 21.2156 3.6075 21.2013C3.58278 21.163 3.54927 21.1313 3.50979 21.1089C3.49519 21.1025 3.48004 21.0975 3.46452 21.0939C3.44936 21.0893 3.4338 21.0861 3.41804 21.0844C3.41268 21.0844 3.40791 21.0844 3.40255 21.0844H0.88235C0.863 21.0899 0.842899 21.0923 0.822785 21.0915C0.817059 21.094 0.811479 21.0968 0.806094 21.0999C0.790466 21.1055 0.775476 21.1127 0.761402 21.1215C0.748333 21.1287 0.735959 21.1372 0.724456 21.1467C0.712751 21.1574 0.702182 21.1692 0.692891 21.1821C0.683198 21.1938 0.674603 21.2064 0.667254 21.2198C0.660777 21.2337 0.655591 21.2482 0.651763 21.263C0.646851 21.2788 0.64366 21.2951 0.642236 21.3116C0.642236 21.3181 0.638672 21.3235 0.638672 21.3301C0.64006 21.34 0.642056 21.3499 0.644636 21.3595C0.64406 21.3697 0.64406 21.3799 0.644636 21.3901C1.04665 22.9859 1.6348 24.5282 2.39686 25.9849C4.43254 29.8633 7.60748 33.0154 11.4887 35.0115C11.5636 36.2985 12.1019 37.514 13.003 38.4304C13.9041 39.3469 15.1062 39.9015 16.3843 39.9906H16.3915H16.401H16.4159C16.4463 39.9905 16.4765 39.9846 16.5047 39.9732C16.5149 39.968 16.5246 39.9619 16.5339 39.9552C16.55 39.9473 16.5652 39.9377 16.5792 39.9264C16.5978 39.9036 16.6155 39.88 16.6322 39.8557C16.6372 39.8433 16.6412 39.8304 16.6441 39.8173C16.6498 39.8038 16.6542 39.7897 16.6572 39.7753C16.7816 38.7947 17.1295 37.8562 17.6736 37.0331C18.5018 37.1683 19.3375 37.2516 20.176 37.2825C20.4328 37.2945 20.7003 37.3005 20.9934 37.3005C21.053 37.3005 21.1126 37.3005 21.1591 37.3005C22.1123 37.2927 23.9205 37.2291 24.7642 37.1164C24.7707 37.1164 24.7761 37.1116 24.7827 37.1098C24.8014 37.1059 24.8197 37.0997 24.8369 37.0912C24.848 37.086 24.8588 37.0801 24.8691 37.0733C24.8744 37.0691 24.881 37.0679 24.8863 37.0637C24.8928 37.0569 24.8987 37.0497 24.9042 37.0421C24.9161 37.0305 24.9267 37.0176 24.9358 37.0037C24.9439 36.9906 24.9506 36.9768 24.9561 36.9624C24.9635 36.948 24.9695 36.933 24.9739 36.9174Z" fill="white"/>
</g>
</g>
<g id="Group 8338">
<g id="Group 8337">
<path id="Path 3765" d="M8.28675 21.2378C8.2703 21.2103 8.25303 21.1833 8.23493 21.1569C8.22463 21.1482 8.21368 21.1404 8.20217 21.1335C8.18863 21.1219 8.17382 21.1118 8.15806 21.1035C8.14848 21.1006 8.13876 21.0981 8.12889 21.0963C8.10831 21.0892 8.08683 21.085 8.06511 21.0837H5.28516L5.38047 21.4009C5.4472 21.6221 5.51988 21.844 5.59615 22.0604C6.976 26.002 9.75605 29.2906 13.4011 31.2932C15.6502 32.5372 19.2935 33.3736 22.4661 33.3736H22.5513C22.6161 33.3736 22.6782 33.3476 22.724 33.3015C22.7698 33.2555 22.7956 33.1929 22.7956 33.1277V33.0264L22.7592 32.9886C22.5067 32.36 22.2917 31.7168 22.1152 31.0624C22.1152 31.0546 22.1092 31.048 22.1074 31.0402C22.1044 31.0276 22.1002 31.0154 22.0949 31.0036C22.0828 30.9765 22.0662 30.9516 22.046 30.9299C22.0336 30.9174 22.0198 30.9064 22.0049 30.8969C21.995 30.8896 21.9844 30.8832 21.9734 30.8777C21.9558 30.8703 21.9374 30.8651 21.9185 30.8621C21.91 30.859 21.9012 30.8564 21.8923 30.8543C21.7297 30.8423 21.567 30.8256 21.405 30.8064C19.575 30.6281 17.7755 30.2127 16.0512 29.5707C12.4838 27.9209 9.69923 24.9323 8.29271 21.2438C8.29271 21.2438 8.28675 21.239 8.28675 21.2378Z" fill="white"/>
</g>
</g>
<g id="Group 8340">
<g id="Group 8339">
<path id="Path 3766" d="M10.0908 21.3847C10.0933 21.4007 10.0975 21.4164 10.1033 21.4315C10.1033 21.4315 10.1033 21.4363 10.1033 21.4387C11.1365 23.3846 12.6109 25.058 14.407 26.3232C16.2031 27.5884 18.2704 28.4097 20.441 28.7206C20.4592 28.7226 20.4775 28.7236 20.4958 28.7236C20.5655 28.7236 20.6344 28.7077 20.6973 28.6773C20.7602 28.6469 20.8156 28.6027 20.8592 28.5479C20.9097 28.4853 20.9437 28.4108 20.9577 28.3315C20.9718 28.2521 20.9656 28.1703 20.9396 28.094L20.2944 26.1834C20.2565 26.0714 20.1907 25.9711 20.1033 25.8921C20.0159 25.813 19.9097 25.7579 19.7951 25.7319C17.0932 25.0982 14.2643 23.2312 12.9155 21.1928C12.9113 21.1862 12.9041 21.1827 12.8994 21.1767C12.8887 21.1635 12.8767 21.1514 12.8636 21.1407C12.8518 21.1309 12.839 21.1223 12.8255 21.1149C12.797 21.0997 12.7658 21.0904 12.7337 21.0873C12.7267 21.0856 12.7195 21.0842 12.7123 21.0831H10.3238H10.3172C10.3002 21.0848 10.2834 21.0882 10.2671 21.0933C10.2519 21.0962 10.237 21.1005 10.2225 21.1059H10.2153C10.2057 21.1124 10.1965 21.1196 10.1879 21.1275C10.1729 21.137 10.1589 21.148 10.1462 21.1604C10.1365 21.1722 10.128 21.1849 10.1206 21.1983C10.1115 21.2112 10.1037 21.225 10.0974 21.2396C10.092 21.2563 10.0886 21.2736 10.0872 21.2912C10.0838 21.3025 10.0814 21.3141 10.0801 21.3259C10.0801 21.3259 10.0801 21.3301 10.0801 21.3331C10.0818 21.3507 10.0854 21.368 10.0908 21.3847Z" fill="white"/>
</g>
</g>
</g>
</g>
</svg>
