<svg width="42" height="40" viewBox="0 0 42 40" fill="none" xmlns="http://www.w3.org/2000/svg">
<g id="Group 8341">
<path id="Path 3763" d="M41.8147 18.9854C41.9388 18.0513 42.0007 17.1099 42 16.1676C42 15.9649 42 15.7659 41.9905 15.568C41.9821 15.2335 41.9684 14.9541 41.9482 14.6897C41.9 13.9646 41.8127 13.2427 41.6866 12.5272C41.6669 12.4073 41.6473 12.2952 41.627 12.1837C41.5919 11.9858 41.552 11.7874 41.5079 11.5949C41.4829 11.4786 41.4572 11.3623 41.4286 11.2526C41.3911 11.0889 41.3512 10.9253 41.3095 10.7688C40.2326 6.66513 37.9516 2.98334 34.764 0.20382L34.5305 0L34.3875 0.275761C34.1931 0.65162 34.0273 1.04186 33.8918 1.44306C33.6021 2.30662 33.4552 3.21215 33.4569 4.12358C33.4569 4.58813 33.4946 5.05189 33.5695 5.51029V5.59361L33.588 5.6122C33.6614 6.02469 33.766 6.43098 33.9008 6.82747C32.1843 6.54872 30.425 6.7367 28.805 7.37201C27.185 8.00731 25.7631 9.06683 24.6868 10.4408L24.4091 10.7934L24.8542 10.8383C24.8935 10.8425 28.8639 11.2418 32.4208 11.8006C33.9085 12.0229 35.3754 12.3686 36.8065 12.8342C36.8114 12.8345 36.8164 12.8345 36.8213 12.8342C36.8255 12.8342 36.8285 12.8378 36.8327 12.839C37.0384 12.8921 37.2177 13.0191 37.337 13.1959C37.4563 13.3728 37.5073 13.5874 37.4805 13.7994C37.4536 14.0114 37.3507 14.2063 37.1912 14.3474C37.0316 14.4884 36.8264 14.5661 36.614 14.5656H0.28837C0.269299 14.567 0.250484 14.5708 0.232369 14.577C0.198547 14.5809 0.16693 14.5958 0.142403 14.6196C0.137041 14.6238 0.130478 14.6262 0.125712 14.631C0.110993 14.6457 0.0982025 14.6622 0.087602 14.6801C0.0804979 14.689 0.0740958 14.6984 0.0685106 14.7083C0.062225 14.7246 0.0576629 14.7415 0.0548376 14.7587C0.0503124 14.7707 0.0469042 14.7831 0.0446919 14.7958C0.0154979 15.2449 0 15.7053 0 16.1634C0.0104967 17.3294 0.106479 18.493 0.28717 19.6449L0.321753 19.8493H12.2108C14.2001 19.8451 16.1471 20.4272 17.8113 21.5238C21.3199 24.0418 22.9489 30.1708 22.9655 30.235C23.0114 30.4029 24.1148 34.3664 26.5743 36.418C27.3685 37.1748 28.2549 37.8271 29.2124 38.3593C32.052 39.9365 35.3723 40.3971 38.5301 39.6519C38.5372 39.6519 38.542 39.6453 38.5492 39.6429C38.5639 39.6377 38.578 39.631 38.5914 39.6231C38.6071 39.6146 38.6217 39.6044 38.6349 39.5925C38.6403 39.5877 38.6474 39.5859 38.6522 39.5805C38.657 39.5751 38.6594 39.5667 38.6641 39.5607C38.6836 39.5354 38.698 39.5065 38.7064 39.4756C38.7105 39.4605 38.7131 39.445 38.7142 39.4294C38.7159 39.4131 38.7159 39.3966 38.7142 39.3803C38.7142 39.3719 38.7142 39.3641 38.7142 39.3557C38.7142 39.3473 38.7076 39.3431 38.7046 39.3359C38.6992 39.32 38.6923 39.3048 38.6838 39.2903C38.676 39.277 38.667 39.2643 38.657 39.2526C38.6516 39.2466 38.6493 39.2388 38.6433 39.2334C36.6845 37.3808 35.1818 35.0942 34.2547 32.5552C38.4074 29.172 41.1131 24.3155 41.8147 18.9854Z" fill="#0059E7"/>
<g id="Group 20958">
<g id="Group 8336">
<g id="Group 8335">
<path id="Path 3764" d="M24.9739 36.919C24.9769 36.9024 24.9781 36.8855 24.9775 36.8686C24.9781 36.8596 24.9781 36.8506 24.9775 36.8416C24.9775 36.8356 24.9727 36.8308 24.9715 36.8248C24.9679 36.8087 24.9625 36.7931 24.9554 36.7781C24.9494 36.763 24.9418 36.7485 24.9328 36.7349C24.9292 36.7301 24.9287 36.7241 24.9245 36.7193C24.4136 36.0839 23.9576 35.4058 23.5613 34.6923C23.5496 34.6738 23.5354 34.657 23.519 34.6426C23.5147 34.6371 23.5101 34.6319 23.5053 34.627C23.4848 34.6101 23.4616 34.5967 23.4368 34.5874C23.432 34.5874 23.4284 34.5826 23.4237 34.5808C23.4031 34.5748 23.3819 34.5715 23.3605 34.5712C23.3509 34.5692 23.3411 34.5678 23.3313 34.567C23.1883 34.5772 22.5437 34.585 22.1171 34.5904C21.9336 34.5904 21.7852 34.5946 21.7269 34.5958H21.5928C20.9767 34.6072 20.3494 34.5886 19.7136 34.5358C17.127 34.3243 14.6157 33.5562 12.3496 32.2834C8.77071 30.2737 5.95893 27.1218 4.35821 23.3252C4.0774 22.6524 3.83687 21.9633 3.6379 21.2616C3.6379 21.2568 3.63253 21.2532 3.63074 21.2484C3.62463 21.2324 3.61684 21.2172 3.6075 21.2029C3.58278 21.1646 3.54927 21.1329 3.50979 21.1105C3.49519 21.1041 3.48004 21.0991 3.46452 21.0955C3.44936 21.0908 3.4338 21.0876 3.41804 21.0859C3.41268 21.0859 3.40791 21.0859 3.40255 21.0859H0.88235C0.863 21.0915 0.842899 21.0939 0.822785 21.0931C0.817059 21.0956 0.811479 21.0984 0.806094 21.1015C0.790466 21.1071 0.775476 21.1143 0.761402 21.1231C0.748333 21.1303 0.735959 21.1388 0.724456 21.1483C0.712751 21.159 0.702182 21.1708 0.692891 21.1836C0.683198 21.1954 0.674603 21.208 0.667254 21.2214C0.660777 21.2353 0.655591 21.2497 0.651763 21.2646C0.646851 21.2804 0.64366 21.2967 0.642236 21.3131C0.642236 21.3197 0.638672 21.3251 0.638672 21.3317C0.64006 21.3416 0.642056 21.3515 0.644636 21.3611C0.64406 21.3713 0.64406 21.3815 0.644636 21.3917C1.04665 22.9875 1.6348 24.5298 2.39686 25.9865C4.43254 29.8649 7.60748 33.017 11.4887 35.0131C11.5636 36.3001 12.1019 37.5156 13.003 38.432C13.9041 39.3485 15.1062 39.9031 16.3843 39.9922H16.3915H16.401H16.4159C16.4463 39.992 16.4765 39.9861 16.5047 39.9748C16.5149 39.9695 16.5246 39.9635 16.5339 39.9568C16.55 39.9489 16.5652 39.9393 16.5792 39.928C16.5978 39.9052 16.6155 39.8816 16.6322 39.8573C16.6372 39.8448 16.6412 39.832 16.6441 39.8189C16.6498 39.8054 16.6542 39.7913 16.6572 39.7769C16.7816 38.7963 17.1295 37.8578 17.6736 37.0347C18.5018 37.1699 19.3375 37.2532 20.176 37.2841C20.4328 37.2961 20.7003 37.3021 20.9934 37.3021C21.053 37.3021 21.1126 37.3021 21.1591 37.3021C22.1123 37.2943 23.9205 37.2307 24.7642 37.118C24.7707 37.118 24.7761 37.1132 24.7827 37.1114C24.8014 37.1075 24.8197 37.1013 24.8369 37.0928C24.848 37.0876 24.8588 37.0816 24.8691 37.0749C24.8744 37.0707 24.881 37.0694 24.8863 37.0652C24.8928 37.0585 24.8987 37.0513 24.9042 37.0437C24.9161 37.0321 24.9267 37.0192 24.9358 37.0053C24.9439 36.9922 24.9506 36.9784 24.9561 36.964C24.9635 36.9496 24.9695 36.9345 24.9739 36.919Z" fill="white"/>
</g>
</g>
<g id="Group 8338">
<g id="Group 8337">
<path id="Path 3765" d="M8.28626 21.2381C8.26981 21.2106 8.25254 21.1836 8.23444 21.1571C8.22415 21.1485 8.21319 21.1407 8.20168 21.1338C8.18814 21.1221 8.17333 21.1121 8.15757 21.1038C8.14799 21.1008 8.13827 21.0984 8.1284 21.0966C8.10783 21.0895 8.08634 21.0852 8.06462 21.084H5.28467L5.37998 21.4011C5.44671 21.6224 5.51939 21.8442 5.59566 22.0606C6.97551 26.0022 9.75556 29.2908 13.4006 31.2934C15.6497 32.5374 19.293 33.3738 22.4656 33.3738H22.5508C22.6156 33.3738 22.6777 33.3479 22.7235 33.3018C22.7693 33.2557 22.7951 33.1932 22.7951 33.128V33.0267L22.7587 32.9889C22.5062 32.3602 22.2912 31.717 22.1147 31.0626C22.1147 31.0548 22.1087 31.0482 22.1069 31.0404C22.1039 31.0279 22.0997 31.0156 22.0944 31.0039C22.0823 30.9767 22.0657 30.9518 22.0456 30.9301C22.0331 30.9177 22.0193 30.9066 22.0045 30.8972C21.9945 30.8899 21.9839 30.8834 21.9729 30.8779C21.9553 30.8706 21.9369 30.8653 21.9181 30.8624C21.9095 30.8592 21.9007 30.8566 21.8918 30.8546C21.7292 30.8426 21.5665 30.8258 21.4045 30.8066C19.5745 30.6283 17.775 30.213 16.0507 29.571C12.4833 27.9211 9.69874 24.9326 8.29223 21.2441C8.29223 21.2441 8.28626 21.2393 8.28626 21.2381Z" fill="white"/>
</g>
</g>
<g id="Group 8340">
<g id="Group 8339">
<path id="Path 3766" d="M10.0908 21.3855C10.0933 21.4015 10.0975 21.4172 10.1033 21.4323C10.1033 21.4323 10.1033 21.4371 10.1033 21.4395C11.1365 23.3854 12.6109 25.0588 14.407 26.324C16.2031 27.5892 18.2704 28.4106 20.441 28.7214C20.4592 28.7234 20.4775 28.7244 20.4958 28.7244C20.5655 28.7244 20.6344 28.7086 20.6973 28.6782C20.7602 28.6478 20.8156 28.6036 20.8592 28.5488C20.9097 28.4862 20.9437 28.4117 20.9577 28.3323C20.9718 28.2529 20.9656 28.1712 20.9396 28.0949L20.2944 26.1842C20.2565 26.0723 20.1907 25.972 20.1033 25.8929C20.0159 25.8139 19.9097 25.7587 19.7951 25.7327C17.0932 25.099 14.2643 23.2321 12.9155 21.1937C12.9113 21.1871 12.9041 21.1835 12.8994 21.1775C12.8887 21.1643 12.8767 21.1523 12.8636 21.1415C12.8518 21.1318 12.839 21.1231 12.8255 21.1157C12.797 21.1006 12.7658 21.0912 12.7337 21.0882C12.7267 21.0864 12.7195 21.085 12.7123 21.084H10.3238H10.3172C10.3002 21.0857 10.2834 21.0891 10.2671 21.0942C10.2519 21.0971 10.237 21.1013 10.2225 21.1068H10.2153C10.2057 21.1133 10.1965 21.1205 10.1879 21.1283C10.1729 21.1378 10.1589 21.1489 10.1462 21.1613C10.1365 21.1731 10.128 21.1857 10.1206 21.1991C10.1115 21.2121 10.1037 21.2259 10.0974 21.2405C10.092 21.2572 10.0886 21.2745 10.0872 21.292C10.0838 21.3034 10.0814 21.315 10.0801 21.3268C10.0801 21.3268 10.0801 21.331 10.0801 21.334C10.0818 21.3515 10.0854 21.3688 10.0908 21.3855Z" fill="white"/>
</g>
</g>
</g>
</g>
</svg>
