<svg width="24" height="25" viewBox="0 0 24 25" fill="none" xmlns="http://www.w3.org/2000/svg">
<g id="mail-open-line" clip-path="url(#clip0_803_1814)">
<path id="Vector" d="M2.243 6.96091L11.49 1.33028C11.6454 1.23558 11.8233 1.18555 12.0045 1.18555C12.1857 1.18555 12.3636 1.23558 12.519 1.33028L21.757 6.96192C21.8311 7.00703 21.8925 7.07088 21.9351 7.14724C21.9776 7.2236 22 7.30987 22 7.39763V20.3123C22 20.5817 21.8946 20.84 21.7071 21.0305C21.5196 21.2209 21.2652 21.3279 21 21.3279H3C2.73478 21.3279 2.48043 21.2209 2.29289 21.0305C2.10536 20.84 2 20.5817 2 20.3123V7.39661C1.99998 7.30885 2.02236 7.22259 2.06495 7.14622C2.10753 7.06986 2.16888 7.00602 2.243 6.96091ZM4 8.25989V19.2967H20V8.25888L12.004 3.38388L4 8.25888V8.25989ZM12.06 13.9118L17.356 9.37911L18.644 10.933L12.074 16.5565L5.364 10.9401L6.636 9.372L12.06 13.9118V13.9118Z" fill="#0CAF60"/>
</g>
<defs>
<clipPath id="clip0_803_1814">
<rect width="24" height="24.375" fill="white"/>
</clipPath>
</defs>
</svg>
