<svg width="24" height="24" viewBox="0 0 24 24" fill="none" xmlns="http://www.w3.org/2000/svg">
<g id="mail-open-line 1" clip-path="url(#clip0_437_27858)">
<path id="Vector" d="M2.243 6.85448L11.49 1.31048C11.6454 1.21723 11.8233 1.16797 12.0045 1.16797C12.1857 1.16797 12.3636 1.21723 12.519 1.31048L21.757 6.85548C21.8311 6.89989 21.8925 6.96276 21.9351 7.03794C21.9776 7.11313 22 7.19807 22 7.28448V20.0005C22 20.2657 21.8946 20.5201 21.7071 20.7076C21.5196 20.8951 21.2652 21.0005 21 21.0005H3C2.73478 21.0005 2.48043 20.8951 2.29289 20.7076C2.10536 20.5201 2 20.2657 2 20.0005V7.28348C1.99998 7.19707 2.02236 7.11213 2.06495 7.03694C2.10753 6.96176 2.16888 6.89889 2.243 6.85448ZM4 8.13348V19.0005H20V8.13248L12.004 3.33248L4 8.13248V8.13348ZM12.06 13.6985L17.356 9.23548L18.644 10.7655L12.074 16.3025L5.364 10.7725L6.636 9.22848L12.06 13.6985Z" fill="white"/>
</g>
<defs>
<clipPath id="clip0_437_27858">
<rect width="24" height="24" fill="white"/>
</clipPath>
</defs>
</svg>
