<svg width="42" height="27" viewBox="0 0 42 27" fill="none" xmlns="http://www.w3.org/2000/svg">
<g id="mastercard_logo">
<path id="Vector" d="M15.5117 3.69531H26.6871V23.7756H15.5117V3.69531Z" fill="#FF5F00"/>
<g id="Group">
<path id="Vector_2" d="M16.2211 13.7348C16.2211 9.65494 18.1369 6.03616 21.0814 3.69459C18.9174 1.9917 16.1858 0.962891 13.2057 0.962891C6.14539 0.962891 0.433594 6.67468 0.433594 13.7348C0.433594 20.7947 6.14539 26.5067 13.2055 26.5067C16.1856 26.5067 18.9173 25.4779 21.0814 23.7748C18.1369 21.4688 16.2211 17.8146 16.2211 13.7348Z" fill="#EB001B"/>
<path id="Vector_3" d="M41.765 13.7348C41.765 20.7947 36.0532 26.5067 28.9931 26.5067C26.013 26.5067 23.2813 25.4779 21.1172 23.7748C24.0973 21.4334 25.9776 17.8146 25.9776 13.7348C25.9776 9.65494 24.0617 6.03616 21.1172 3.69459C23.2811 1.9917 26.013 0.962891 28.9931 0.962891C36.0532 0.962891 41.7652 6.71024 41.7652 13.7348H41.765Z" fill="#F79E1B"/>
</g>
</g>
</svg>
