<svg width="43" height="26" viewBox="0 0 43 26" fill="none" xmlns="http://www.w3.org/2000/svg">
<g id="Logo">
<path id="Vector" d="M16.0117 3.10156H27.1871V23.1818H16.0117V3.10156Z" fill="#FF8AA2"/>
<g id="Logo 2">
<path id="Vector_2" d="M16.7231 13.141C16.7231 9.06119 18.6388 5.44241 21.5834 3.10084C19.4194 1.39795 16.6877 0.369141 13.7076 0.369141C6.64734 0.369141 0.935547 6.08093 0.935547 13.141C0.935547 20.201 6.64734 25.9129 13.7074 25.9129C16.6875 25.9129 19.4192 24.8841 21.5834 23.1811C18.6388 20.8751 16.7231 17.2209 16.7231 13.141Z" fill="#FD6887"/>
<path id="Vector_3" d="M42.267 13.141C42.267 20.201 36.5552 25.9129 29.4951 25.9129C26.515 25.9129 23.7833 24.8841 21.6191 23.1811C24.5992 20.8397 26.4796 17.2209 26.4796 13.141C26.4796 9.06119 24.5637 5.44241 21.6191 3.10084C23.7831 1.39795 26.515 0.369141 29.4951 0.369141C36.5552 0.369141 42.2671 6.11649 42.2671 13.141H42.267Z" fill="#FD6887"/>
</g>
</g>
</svg>
