<svg width="45" height="45" viewBox="0 0 45 45" fill="none" xmlns="http://www.w3.org/2000/svg">
<g id="Image">
<path id="Vector" d="M38.7138 5.01367L24.6602 15.4515L27.259 9.29333L38.7138 5.01367Z" fill="#E2761B" stroke="#E2761B" stroke-linecap="round" stroke-linejoin="round"/>
<g id="Group">
<path id="Vector_2" d="M6.27344 5.01367L20.2141 15.5504L17.7424 9.29333L6.27344 5.01367Z" fill="#E4761B" stroke="#E4761B" stroke-linecap="round" stroke-linejoin="round"/>
<path id="Vector_3" d="M33.6609 29.209L29.918 34.9434L37.9264 37.1468L40.2287 29.3361L33.6609 29.209Z" fill="#E4761B" stroke="#E4761B" stroke-linecap="round" stroke-linejoin="round"/>
<path id="Vector_4" d="M4.78906 29.3361L7.0772 37.1468L15.0857 34.9434L11.3427 29.209L4.78906 29.3361Z" fill="#E4761B" stroke="#E4761B" stroke-linecap="round" stroke-linejoin="round"/>
<path id="Vector_5" d="M14.634 19.5195L12.4023 22.8952L20.3543 23.2483L20.0718 14.7031L14.634 19.5195Z" fill="#E4761B" stroke="#E4761B" stroke-linecap="round" stroke-linejoin="round"/>
<path id="Vector_6" d="M30.3522 19.5188L24.8438 14.6035L24.6602 23.2476L32.598 22.8945L30.3522 19.5188Z" fill="#E4761B" stroke="#E4761B" stroke-linecap="round" stroke-linejoin="round"/>
<path id="Vector_7" d="M15.0859 34.9434L19.8599 32.6129L15.7357 29.3926L15.0859 34.9434Z" fill="#E4761B" stroke="#E4761B" stroke-linecap="round" stroke-linejoin="round"/>
<path id="Vector_8" d="M25.1289 32.6129L29.917 34.9434L29.2532 29.3926L25.1289 32.6129Z" fill="#E4761B" stroke="#E4761B" stroke-linecap="round" stroke-linejoin="round"/>
</g>
<g id="Group_2">
<path id="Vector_9" d="M29.917 34.9438L25.1289 32.6133L25.5103 35.7348L25.4679 37.0483L29.917 34.9438Z" fill="#D7C1B3" stroke="#D7C1B3" stroke-linecap="round" stroke-linejoin="round"/>
<path id="Vector_10" d="M15.0859 34.9438L19.5351 37.0483L19.5068 35.7348L19.8599 32.6133L15.0859 34.9438Z" fill="#D7C1B3" stroke="#D7C1B3" stroke-linecap="round" stroke-linejoin="round"/>
</g>
<path id="Vector_11" d="M19.6041 27.3307L15.6211 26.1584L18.4318 24.873L19.6041 27.3307Z" fill="#233447" stroke="#233447" stroke-linecap="round" stroke-linejoin="round"/>
<path id="Vector_12" d="M25.3828 27.3307L26.5551 24.873L29.38 26.1584L25.3828 27.3307Z" fill="#233447" stroke="#233447" stroke-linecap="round" stroke-linejoin="round"/>
<g id="Group_3">
<path id="Vector_13" d="M15.0867 34.9434L15.7647 29.209L11.3438 29.3361L15.0867 34.9434Z" fill="#CD6116" stroke="#CD6116" stroke-linecap="round" stroke-linejoin="round"/>
<path id="Vector_14" d="M29.2383 29.207L29.9162 34.9415L33.6592 29.3341L29.2383 29.207Z" fill="#CD6116" stroke="#CD6116" stroke-linecap="round" stroke-linejoin="round"/>
<path id="Vector_15" d="M32.6019 22.8945L24.6641 23.2476L25.3985 27.3296L26.5708 24.8719L29.3957 26.1572L32.6019 22.8945Z" fill="#CD6116" stroke="#CD6116" stroke-linecap="round" stroke-linejoin="round"/>
<path id="Vector_16" d="M15.6227 26.1572L18.4475 24.8719L19.6057 27.3296L20.3543 23.2476L12.4023 22.8945L15.6227 26.1572Z" fill="#CD6116" stroke="#CD6116" stroke-linecap="round" stroke-linejoin="round"/>
</g>
<g id="Group_4">
<path id="Vector_17" d="M12.4023 22.8945L15.7357 29.3917L15.6227 26.1572L12.4023 22.8945Z" fill="#E4751F" stroke="#E4751F" stroke-linecap="round" stroke-linejoin="round"/>
<path id="Vector_18" d="M29.3951 26.1572L29.2539 29.3917L32.6014 22.8945L29.3951 26.1572Z" fill="#E4751F" stroke="#E4751F" stroke-linecap="round" stroke-linejoin="round"/>
<path id="Vector_19" d="M20.3541 23.248L19.6055 27.33L20.5377 32.1464L20.7495 25.8045L20.3541 23.248Z" fill="#E4751F" stroke="#E4751F" stroke-linecap="round" stroke-linejoin="round"/>
<path id="Vector_20" d="M24.6626 23.248L24.2812 25.7904L24.4507 32.1464L25.3971 27.33L24.6626 23.248Z" fill="#E4751F" stroke="#E4751F" stroke-linecap="round" stroke-linejoin="round"/>
</g>
<path id="Vector_21" d="M25.3955 27.3305L24.4492 32.1469L25.1272 32.613L29.2515 29.3927L29.3927 26.1582L25.3955 27.3305Z" fill="#F6851B" stroke="#F6851B" stroke-linecap="round" stroke-linejoin="round"/>
<path id="Vector_22" d="M15.6211 26.1582L15.7341 29.3927L19.8584 32.613L20.5363 32.1469L19.6041 27.3305L15.6211 26.1582Z" fill="#F6851B" stroke="#F6851B" stroke-linecap="round" stroke-linejoin="round"/>
<path id="Vector_23" d="M25.4673 37.0479L25.5097 35.7343L25.1566 35.4236H19.8317L19.5068 35.7343L19.5351 37.0479L15.0859 34.9434L16.6396 36.2145L19.7893 38.4038H25.1989L28.3628 36.2145L29.9164 34.9434L25.4673 37.0479Z" fill="#C0AD9E" stroke="#C0AD9E" stroke-linecap="round" stroke-linejoin="round"/>
<path id="Vector_24" d="M25.1254 32.6126L24.4474 32.1465H20.535L19.857 32.6126L19.5039 35.7341L19.8288 35.4233H25.1536L25.5067 35.7341L25.1254 32.6126Z" fill="#161616" stroke="#161616" stroke-linecap="round" stroke-linejoin="round"/>
<g id="Group_5">
<path id="Vector_25" d="M39.3097 16.1295L40.5103 10.3668L38.7165 5.01367L25.1289 15.0984L30.3549 19.5193L37.7419 21.6803L39.3803 19.7736L38.6741 19.2651L39.804 18.234L38.9283 17.556L40.0583 16.6945L39.3097 16.1295Z" fill="#763D16" stroke="#763D16" stroke-linecap="round" stroke-linejoin="round"/>
<path id="Vector_26" d="M4.49219 10.3668L5.69275 16.1295L4.93004 16.6945L6.05998 17.556L5.1984 18.234L6.32835 19.2651L5.62213 19.7736L7.24642 21.6803L14.6334 19.5193L19.8594 15.0984L6.27185 5.01367L4.49219 10.3668Z" fill="#763D16" stroke="#763D16" stroke-linecap="round" stroke-linejoin="round"/>
</g>
<path id="Vector_27" d="M37.7387 21.6805L30.3517 19.5195L32.5975 22.8952L29.25 29.3924L33.6568 29.3359H40.2246L37.7387 21.6805Z" fill="#F6851B" stroke="#F6851B" stroke-linecap="round" stroke-linejoin="round"/>
<path id="Vector_28" d="M14.6337 19.5195L7.24669 21.6805L4.78906 29.3359H11.3427L15.7354 29.3924L12.4021 22.8952L14.6337 19.5195Z" fill="#F6851B" stroke="#F6851B" stroke-linecap="round" stroke-linejoin="round"/>
<path id="Vector_29" d="M24.6592 23.2478L25.1253 15.0981L27.2722 9.29297H17.7383L19.8569 15.0981L20.3513 23.2478L20.5208 25.8184L20.5349 32.1461H24.4473L24.4756 25.8184L24.6592 23.2478Z" fill="#F6851B" stroke="#F6851B" stroke-linecap="round" stroke-linejoin="round"/>
</g>
</svg>
