<svg width="24" height="24" viewBox="0 0 24 24" fill="none" xmlns="http://www.w3.org/2000/svg">
<g id="Music-Icon" clip-path="url(#clip0_734_11207)">
<path id="Vector" d="M15 4.58278V12.0008C14.9997 12.6375 14.7967 13.2577 14.4206 13.7715C14.0444 14.2852 13.5145 14.666 12.9076 14.8586C12.3007 15.0513 11.6482 15.0458 11.0446 14.843C10.441 14.6402 9.91755 14.2506 9.55006 13.7306C9.18256 13.2106 8.99005 12.5872 9.0004 11.9505C9.01074 11.3138 9.2234 10.6969 9.60759 10.1891C9.99179 9.68133 10.5276 9.30895 11.1375 9.12588C11.7473 8.9428 12.3997 8.95853 13 9.17078V2.05078C18.053 2.55178 22 6.81578 22 12.0008C22 17.5238 17.523 22.0008 12 22.0008C6.477 22.0008 2 17.5238 2 12.0008C2 6.81578 5.947 2.55178 11 2.05078V4.06278C8.98271 4.31946 7.13885 5.33465 5.84319 6.902C4.54752 8.46935 3.89728 10.4712 4.02462 12.5008C4.15196 14.5304 5.04733 16.4353 6.52874 17.8284C8.01016 19.2215 9.96645 19.9983 12 20.0008C13.8573 20.0018 15.6572 19.3566 17.0908 18.1757C18.5244 16.9948 19.5024 15.3519 19.8572 13.5287C20.2119 11.7056 19.9213 9.81583 19.035 8.18356C18.1488 6.55129 16.7222 5.27825 15 4.58278Z" fill="#A4A8AB"/>
</g>
<defs>
<clipPath id="clip0_734_11207">
<rect width="24" height="24" fill="white"/>
</clipPath>
</defs>
</svg>
