<svg width="45" height="45" viewBox="0 0 45 45" fill="none" xmlns="http://www.w3.org/2000/svg">
<g id="Group 47891">
<path id="Vector" d="M22.5 45C34.9264 45 45 34.9264 45 22.5C45 10.0736 34.9264 0 22.5 0C10.0736 0 0 10.0736 0 22.5C0 34.9264 10.0736 45 22.5 45Z" fill="url(#paint0_linear_437_29779)"/>
<path id="Image" d="M38.6072 22.7745H34.6407C34.6407 14.6912 28.0651 8.13867 19.9529 8.13867C11.9412 8.13867 5.42764 14.5308 5.26822 22.4756C5.10329 30.6881 12.8355 37.8196 21.0783 37.8196H22.1151C29.3821 37.8196 39.1221 32.151 40.6439 25.2443C40.9249 23.9712 39.9157 22.7745 38.6072 22.7745ZM14.0585 23.1346C14.0585 24.2155 13.1713 25.0997 12.0865 25.0997C11.0017 25.0997 10.1144 24.2151 10.1144 23.1346V19.9556C10.1144 18.8747 11.0017 17.9906 12.0865 17.9906C13.1713 17.9906 14.0585 18.8747 14.0585 19.9556V23.1346ZM20.9062 23.1346C20.9062 24.2155 20.0191 25.0997 18.9343 25.0997C17.8494 25.0997 16.9622 24.2151 16.9622 23.1346V19.9556C16.9622 18.8747 17.8498 17.9906 18.9343 17.9906C20.0191 17.9906 20.9062 18.8747 20.9062 19.9556V23.1346Z" fill="url(#paint1_linear_437_29779)"/>
</g>
<defs>
<linearGradient id="paint0_linear_437_29779" x1="22.5" y1="0" x2="22.5" y2="45" gradientUnits="userSpaceOnUse">
<stop stop-color="#534BB1"/>
<stop offset="1" stop-color="#551BF9"/>
</linearGradient>
<linearGradient id="paint1_linear_437_29779" x1="22.9783" y1="8.13867" x2="22.9783" y2="37.8196" gradientUnits="userSpaceOnUse">
<stop stop-color="white"/>
<stop offset="1" stop-color="white" stop-opacity="0.82"/>
</linearGradient>
</defs>
</svg>
