<svg width="32" height="25" viewBox="0 0 32 25" fill="none" xmlns="http://www.w3.org/2000/svg">
<g id="quote-Icon">
<path id="Path 58832" d="M7.8125 10.6301H13.4121V24.1162H0V10.6301C0.308734 7.87418 1.54487 5.30488 3.50586 3.34399C6.65586 0.469994 12.6074 0 12.6074 0V5.32422C11.3626 5.64423 10.2204 6.27827 9.29102 7.16602C8.50518 8.17232 7.9952 9.36648 7.8125 10.6301Z" fill="#0CAF60"/>
<path id="Path 58833" d="M25.8125 10.6301H31.4121V24.1162H18V10.6301C18.3087 7.87418 19.5449 5.30488 21.5059 3.34399C24.6559 0.469994 30.6074 0 30.6074 0V5.32422C29.3626 5.64423 28.2204 6.27827 27.291 7.16602C26.5052 8.17232 25.9952 9.36648 25.8125 10.6301Z" fill="#0CAF60"/>
</g>
</svg>
