<svg width="20" height="20" viewBox="0 0 20 20" fill="none" xmlns="http://www.w3.org/2000/svg">
<g id="Recive-Icon" clip-path="url(#clip0_693_12941)">
<path id="Vector" d="M3.33341 15.8333H16.6667V10.8333C16.6667 10.3731 17.0398 10 17.5001 10V10C17.9603 10 18.3334 10.3731 18.3334 10.8333V16.6667C18.3334 16.8877 18.2456 17.0996 18.0893 17.2559C17.9331 17.4122 17.7211 17.5 17.5001 17.5H2.50008C2.27907 17.5 2.06711 17.4122 1.91083 17.2559C1.75455 17.0996 1.66675 16.8877 1.66675 16.6667V10.8333C1.66675 10.3731 2.03984 10 2.50008 10V10C2.96032 10 3.33341 10.3731 3.33341 10.8333V15.8333Z" fill="#0CAF60"/>
<path id="Vector_2" d="M10.6428 10.7415L13.613 7.6131C13.8729 7.33934 14.3092 7.33934 14.5691 7.6131V7.6131C14.8106 7.86749 14.8106 8.26647 14.5691 8.52085L10.7917 12.4994C10.3613 12.9528 9.63872 12.9528 9.20826 12.4994L5.43092 8.52085C5.1894 8.26647 5.1894 7.86749 5.43092 7.6131V7.6131C5.69083 7.33934 6.12711 7.33934 6.38703 7.6131L9.35716 10.7415V3.14284C9.35716 2.78781 9.64497 2.5 10 2.5V2.5C10.355 2.5 10.6428 2.78781 10.6428 3.14284V10.7415Z" fill="#0CAF60"/>
</g>
<defs>
<clipPath id="clip0_693_12941">
<rect width="20" height="20" fill="white"/>
</clipPath>
</defs>
</svg>
