<svg width="16" height="17" viewBox="0 0 16 17" fill="none" xmlns="http://www.w3.org/2000/svg">
<g id="Reddit" clip-path="url(#clip0_615_16320)">
<path id="Vector" d="M7.4012 5.71014L7.90186 3.35281C7.9383 3.18151 8.00812 3.01906 8.10735 2.87475C8.20658 2.73044 8.33327 2.6071 8.48018 2.51176C8.62709 2.41642 8.79134 2.35095 8.96356 2.31911C9.13577 2.28726 9.31257 2.28965 9.48386 2.32614L11.6145 2.77948C11.8109 2.56136 12.0738 2.41415 12.3624 2.36067C12.6511 2.3072 12.9492 2.35046 13.2108 2.48374C13.4723 2.61701 13.6825 2.83286 13.8089 3.0978C13.9352 3.36274 13.9706 3.66197 13.9095 3.94906C13.8485 4.23616 13.6944 4.49509 13.4711 4.68569C13.2479 4.87628 12.968 4.9879 12.6749 5.00321C12.3818 5.01853 12.0918 4.93669 11.85 4.7704C11.6081 4.60411 11.4278 4.36265 11.3372 4.08348L9.20653 3.63014L8.76253 5.72014C9.95186 5.81148 11.1339 6.20681 12.2045 6.85348C12.5227 6.67658 12.8809 6.58426 13.2449 6.58534C13.609 6.58642 13.9666 6.68087 14.2837 6.85965C14.6008 7.03843 14.8668 7.29558 15.0561 7.60649C15.2455 7.9174 15.3519 8.27169 15.3652 8.63548V8.64948C15.3703 8.97555 15.3004 9.29844 15.1609 9.5932C15.0213 9.88797 14.8159 10.1467 14.5605 10.3495C14.5593 10.3768 14.5576 10.4042 14.5552 10.4315C14.5552 13.0968 11.5885 15.1181 8.02253 15.1181C4.46786 15.1181 1.55053 13.1021 1.55253 10.4828C1.54962 10.4426 1.5474 10.4024 1.54586 10.3621C1.11527 10.0389 0.823197 9.56454 0.728497 9.03454C0.633797 8.50454 0.743512 7.95835 1.03553 7.50603C1.32755 7.05371 1.78017 6.7289 2.30216 6.59704C2.82416 6.46519 3.37674 6.5361 3.84853 6.79548C4.92527 6.14657 6.14565 5.77375 7.4012 5.71014ZM13.5919 9.39415C13.8639 9.25881 14.0345 8.98081 14.0325 8.67748C14.0256 8.52494 13.9749 8.37763 13.8864 8.25317C13.7979 8.12872 13.6755 8.03238 13.5337 7.9757C13.3919 7.91901 13.2368 7.90438 13.0869 7.93354C12.937 7.9627 12.7987 8.03443 12.6885 8.14015L12.2985 8.51348L11.8519 8.21014C10.7752 7.47814 9.55053 7.06014 8.3652 7.03414H7.69453C6.44453 7.05348 5.26053 7.43414 4.20319 8.15081L3.76119 8.45081L3.37186 8.08415C3.2879 8.00534 3.18782 7.94572 3.07854 7.90941C2.96926 7.87311 2.85339 7.86099 2.73897 7.87389C2.62454 7.88679 2.51428 7.92441 2.41583 7.98413C2.31738 8.04386 2.23308 8.12427 2.16878 8.21979C2.10448 8.31532 2.0617 8.42368 2.04342 8.53737C2.02513 8.65106 2.03178 8.76737 2.06288 8.87824C2.09399 8.98911 2.14883 9.09189 2.22359 9.17948C2.29835 9.26706 2.39125 9.33735 2.49586 9.38548L2.91786 9.57881L2.88186 10.0421C2.87319 10.1555 2.87319 10.2681 2.88386 10.4315C2.88386 12.2381 5.12119 13.7848 8.02253 13.7848C10.9365 13.7848 13.2219 12.2275 13.2239 10.3808C13.2325 10.2681 13.2325 10.1549 13.2239 10.0421L13.1892 9.59414L13.5919 9.39415ZM4.66653 9.50014C4.66653 9.23493 4.77188 8.98057 4.95942 8.79304C5.14696 8.6055 5.40131 8.50014 5.66653 8.50014C5.93174 8.50014 6.1861 8.6055 6.37364 8.79304C6.56117 8.98057 6.66653 9.23493 6.66653 9.50014C6.66653 9.76536 6.56117 10.0197 6.37364 10.2073C6.1861 10.3948 5.93174 10.5001 5.66653 10.5001C5.40131 10.5001 5.14696 10.3948 4.95942 10.2073C4.77188 10.0197 4.66653 9.76536 4.66653 9.50014ZM9.33319 9.50014C9.33319 9.23493 9.43855 8.98057 9.62609 8.79304C9.81362 8.6055 10.068 8.50014 10.3332 8.50014C10.5984 8.50014 10.8528 8.6055 11.0403 8.79304C11.2278 8.98057 11.3332 9.23493 11.3332 9.50014C11.3332 9.76536 11.2278 10.0197 11.0403 10.2073C10.8528 10.3948 10.5984 10.5001 10.3332 10.5001C10.068 10.5001 9.81362 10.3948 9.62609 10.2073C9.43855 10.0197 9.33319 9.76536 9.33319 9.50014ZM8.01053 12.9021C7.0792 12.9021 6.16586 12.6555 5.42253 12.0955C5.37762 12.0413 5.35456 11.9723 5.35786 11.9019C5.36115 11.8316 5.39056 11.7651 5.44034 11.7153C5.49012 11.6655 5.55667 11.6361 5.62699 11.6328C5.6973 11.6295 5.76632 11.6526 5.82053 11.6975C6.45053 12.1595 7.23586 12.3575 7.99986 12.3575C8.76386 12.3575 9.55319 12.1741 10.1892 11.7181C10.226 11.6823 10.2716 11.6567 10.3213 11.644C10.3711 11.6313 10.4234 11.632 10.4728 11.6459C10.5223 11.6598 10.5672 11.6865 10.6031 11.7233C10.639 11.7601 10.6645 11.8057 10.6772 11.8555C10.688 11.9054 10.6864 11.9572 10.6726 12.0063C10.6588 12.0555 10.6331 12.1005 10.5979 12.1375C10.1419 12.6688 8.94186 12.9021 8.01053 12.9021Z" fill="#A4A8AB"/>
</g>
<defs>
<clipPath id="clip0_615_16320">
<rect width="16" height="16" fill="white" transform="translate(0 0.5)"/>
</clipPath>
</defs>
</svg>
