<svg width="20" height="20" viewBox="0 0 20 20" fill="none" xmlns="http://www.w3.org/2000/svg">
<g id="Send-Icon" clip-path="url(#clip0_437_32322)">
<path id="Vector" d="M3.33341 15.8333L16.6667 15.8333L16.6667 10.8333C16.6667 10.3731 17.0398 10 17.5001 10C17.9603 10 18.3334 10.3731 18.3334 10.8333L18.3334 16.6667C18.3334 16.8877 18.2456 17.0996 18.0893 17.2559C17.9331 17.4122 17.7211 17.5 17.5001 17.5L2.50008 17.5C2.27907 17.5 2.0671 17.4122 1.91082 17.2559C1.75454 17.0996 1.66675 16.8877 1.66675 16.6667L1.66675 10.8333C1.66675 10.3731 2.03984 10 2.50008 10C2.96032 10 3.33341 10.3731 3.33341 10.8333L3.33341 15.8333Z" fill="#FF3E46"/>
<path id="Vector_2" d="M9.35716 5.09252L6.38703 8.22088C6.12712 8.49464 5.69084 8.49464 5.43092 8.22088C5.1894 7.96649 5.1894 7.56752 5.43092 7.31313L9.20826 3.33457C9.63872 2.88118 10.3613 2.88118 10.7917 3.33457L14.5691 7.31313C14.8106 7.56752 14.8106 7.96649 14.5691 8.22088C14.3092 8.49464 13.8729 8.49464 13.613 8.22088L10.6428 5.09253L10.6428 12.6911C10.6428 13.0462 10.355 13.334 10 13.334C9.64497 13.334 9.35716 13.0462 9.35716 12.6911L9.35716 5.09252Z" fill="#FF3E46"/>
</g>
<defs>
<clipPath id="clip0_437_32322">
<rect width="20" height="20" fill="white"/>
</clipPath>
</defs>
</svg>
