<svg width="24" height="24" viewBox="0 0 24 24" fill="none" xmlns="http://www.w3.org/2000/svg">
<g id="Share-Icon" clip-path="url(#clip0_437_31381)">
<path id="Vector" d="M13.1202 17.0227L8.92121 14.7327C8.373 15.3188 7.66119 15.7264 6.87828 15.9026C6.09537 16.0788 5.27756 16.0154 4.53113 15.7208C3.7847 15.4261 3.14417 14.9137 2.69277 14.2502C2.24138 13.5867 2 12.8027 2 12.0002C2 11.1977 2.24138 10.4138 2.69277 9.75027C3.14417 9.08676 3.7847 8.57437 4.53113 8.27968C5.27756 7.98498 6.09537 7.92162 6.87828 8.09783C7.66119 8.27403 8.373 8.68165 8.92121 9.26771L13.1212 6.97772C12.8828 6.03379 12.9968 5.0353 13.4418 4.16942C13.8869 3.30353 14.6325 2.6297 15.5389 2.27422C16.4452 1.91874 17.4501 1.90602 18.3652 2.23845C19.2803 2.57088 20.0427 3.22563 20.5095 4.07998C20.9764 4.93432 21.1156 5.9296 20.9011 6.87926C20.6866 7.82892 20.1332 8.66775 19.3444 9.23852C18.5557 9.8093 17.5859 10.0728 16.6168 9.97971C15.6477 9.88659 14.7458 9.44323 14.0802 8.73272L9.88021 11.0227C10.0414 11.6641 10.0414 12.3354 9.88021 12.9767L14.0792 15.2667C14.7448 14.5562 15.6467 14.1128 16.6158 14.0197C17.5849 13.9266 18.5547 14.1901 19.3434 14.7609C20.1322 15.3317 20.6856 16.1705 20.9001 17.1202C21.1146 18.0698 20.9754 19.0651 20.5085 19.9195C20.0417 20.7738 19.2793 21.4286 18.3642 21.761C17.4491 22.0934 16.4442 22.0807 15.5379 21.7252C14.6315 21.3697 13.8859 20.6959 13.4408 19.83C12.9958 18.9641 12.8818 17.9656 13.1202 17.0217V17.0227ZM6.00021 13.9997C6.53064 13.9997 7.03935 13.789 7.41442 13.4139C7.78949 13.0389 8.00021 12.5301 8.00021 11.9997C8.00021 11.4693 7.78949 10.9606 7.41442 10.5855C7.03935 10.2104 6.53064 9.99971 6.00021 9.99971C5.46977 9.99971 4.96107 10.2104 4.58599 10.5855C4.21092 10.9606 4.00021 11.4693 4.00021 11.9997C4.00021 12.5301 4.21092 13.0389 4.58599 13.4139C4.96107 13.789 5.46977 13.9997 6.00021 13.9997ZM17.0002 7.99972C17.5306 7.99972 18.0393 7.789 18.4144 7.41393C18.7895 7.03886 19.0002 6.53015 19.0002 5.99972C19.0002 5.46928 18.7895 4.96057 18.4144 4.5855C18.0393 4.21043 17.5306 3.99972 17.0002 3.99972C16.4698 3.99972 15.9611 4.21043 15.586 4.5855C15.2109 4.96057 15.0002 5.46928 15.0002 5.99972C15.0002 6.53015 15.2109 7.03886 15.586 7.41393C15.9611 7.789 16.4698 7.99972 17.0002 7.99972ZM17.0002 19.9997C17.5306 19.9997 18.0393 19.789 18.4144 19.4139C18.7895 19.0389 19.0002 18.5301 19.0002 17.9997C19.0002 17.4693 18.7895 16.9606 18.4144 16.5855C18.0393 16.2104 17.5306 15.9997 17.0002 15.9997C16.4698 15.9997 15.9611 16.2104 15.586 16.5855C15.2109 16.9606 15.0002 17.4693 15.0002 17.9997C15.0002 18.5301 15.2109 19.0389 15.586 19.4139C15.9611 19.789 16.4698 19.9997 17.0002 19.9997Z" fill="#C2C2C2"/>
</g>
<defs>
<clipPath id="clip0_437_31381">
<rect width="24" height="24" fill="white"/>
</clipPath>
</defs>
</svg>
