<svg width="24" height="25" viewBox="0 0 24 25" fill="none" xmlns="http://www.w3.org/2000/svg">
<g id="smartphone-line 1" clip-path="url(#clip0_803_15252)">
<path id="Vector" d="M7 4.0625V20.3125H17V4.0625H7ZM6 2.03125H18C18.2652 2.03125 18.5196 2.13825 18.7071 2.32872C18.8946 2.51919 19 2.77751 19 3.04688V21.3281C19 21.5975 18.8946 21.8558 18.7071 22.0463C18.5196 22.2367 18.2652 22.3438 18 22.3438H6C5.73478 22.3438 5.48043 22.2367 5.29289 22.0463C5.10536 21.8558 5 21.5975 5 21.3281V3.04688C5 2.77751 5.10536 2.51919 5.29289 2.32872C5.48043 2.13825 5.73478 2.03125 6 2.03125ZM12 17.2656C12.2652 17.2656 12.5196 17.3726 12.7071 17.5631C12.8946 17.7536 13 18.0119 13 18.2812C13 18.5506 12.8946 18.8089 12.7071 18.9994C12.5196 19.1899 12.2652 19.2969 12 19.2969C11.7348 19.2969 11.4804 19.1899 11.2929 18.9994C11.1054 18.8089 11 18.5506 11 18.2812C11 18.0119 11.1054 17.7536 11.2929 17.5631C11.4804 17.3726 11.7348 17.2656 12 17.2656V17.2656Z" fill="#0CAF60"/>
</g>
<defs>
<clipPath id="clip0_803_15252">
<rect width="24" height="24.375" fill="white"/>
</clipPath>
</defs>
</svg>
