<svg width="31" height="24" viewBox="0 0 31 24" fill="none" xmlns="http://www.w3.org/2000/svg">
<g id="Sound-Icon" clip-path="url(#clip0_437_27349)">
<path id="Vector" d="M6.00195 7.22002L2.60495 10H-0.998047V14H2.60495L6.00195 16.78V7.22002ZM1.89095 16H-1.99805C-2.26326 16 -2.51762 15.8947 -2.70515 15.7071C-2.89269 15.5196 -2.99805 15.2652 -2.99805 15V9.00002C-2.99805 8.73481 -2.89269 8.48045 -2.70515 8.29291C-2.51762 8.10538 -2.26326 8.00002 -1.99805 8.00002H1.89095L7.18495 3.66802C7.2582 3.60797 7.34701 3.56996 7.44102 3.55841C7.53503 3.54687 7.63039 3.56227 7.716 3.60282C7.8016 3.64337 7.87392 3.7074 7.92455 3.78745C7.97517 3.86751 8.00202 3.9603 8.00195 4.05502V19.945C8.00202 20.0397 7.97517 20.1325 7.92455 20.2126C7.87392 20.2926 7.8016 20.3567 7.716 20.3972C7.63039 20.4378 7.53503 20.4532 7.44102 20.4416C7.34701 20.4301 7.2582 20.3921 7.18495 20.332L1.89195 16H1.89095ZM15.408 20.134L13.992 18.718C14.9399 17.8745 15.6983 16.8397 16.2172 15.6817C16.736 14.5237 17.0035 13.2689 17.002 12C17.0032 10.6661 16.7073 9.34867 16.1358 8.14339C15.5643 6.93811 14.7315 5.87526 13.698 5.03202L15.118 3.61202C16.3364 4.64357 17.3152 5.9285 17.986 7.37722C18.6568 8.82593 19.0035 10.4035 19.002 12C19.002 15.223 17.616 18.122 15.408 20.134ZM11.865 16.591L10.443 15.169C10.9284 14.7957 11.3215 14.3158 11.5919 13.7663C11.8622 13.2167 12.0025 12.6124 12.002 12C12.002 10.57 11.252 9.31502 10.122 8.60802L11.561 7.16902C12.3184 7.72621 12.9341 8.45387 13.3581 9.29314C13.7822 10.1324 14.0027 11.0597 14.002 12C14.002 13.842 13.172 15.49 11.865 16.591Z" fill="#C2C2C2"/>
</g>
<defs>
<clipPath id="clip0_437_27349">
<rect width="30.4421" height="24" fill="white" transform="translate(0.294922)"/>
</clipPath>
</defs>
</svg>
