<svg width="16" height="16" viewBox="0 0 16 16" fill="none" xmlns="http://www.w3.org/2000/svg">
<g id="Star-Icon" clip-path="url(#clip0_498_8912)">
<path id="Vector" d="M8.00027 12.174L5.18997 13.7471C4.44537 14.1639 3.55442 13.5166 3.7207 12.6796L4.34827 9.52065L1.98341 7.3339C1.35687 6.75456 1.69715 5.70715 2.54455 5.60665L5.74294 5.22732L7.09223 2.30239C7.44966 1.52757 8.55088 1.52757 8.90831 2.30239L10.2576 5.22732L13.456 5.60665C14.3034 5.70715 14.6437 6.75456 14.0171 7.3339L11.6523 9.52065L12.2798 12.6796C12.4461 13.5166 11.5552 14.1639 10.8106 13.7471L8.00027 12.174ZM8.00027 10.646L10.8316 12.2307L10.1989 9.04865L12.5809 6.84532L9.35894 6.46332L8.00027 3.51732L6.6416 6.46398L3.4196 6.84532L5.8016 9.04865L5.16893 12.2307L8.00027 10.646Z" fill="#A4A8AB"/>
</g>
<defs>
<clipPath id="clip0_498_8912">
<rect width="16" height="16" fill="white"/>
</clipPath>
</defs>
</svg>
