<svg width="24" height="24" viewBox="0 0 24 24" fill="none" xmlns="http://www.w3.org/2000/svg">
<g id="Frame" clip-path="url(#clip0_437_29612)">
<path id="Vector" d="M12.0009 18.26L6.83959 21.1491C6.095 21.5659 5.20405 20.9186 5.37032 20.0816L6.52289 14.28L2.1797 10.2639C1.55316 9.68457 1.89344 8.63716 2.74084 8.53666L8.61489 7.84L11.0929 2.4684C11.4503 1.69358 12.5515 1.69358 12.9089 2.4684L15.3869 7.84L21.2609 8.53666C22.1083 8.63716 22.4486 9.68457 21.8221 10.2639L17.4789 14.28L18.6315 20.0816C18.7977 20.9186 17.9068 21.5659 17.1622 21.1491L12.0009 18.26ZM12.0009 15.968L16.2479 18.345L15.2989 13.572L18.8719 10.267L14.0389 9.694L12.0009 5.275L9.96289 9.695L5.12989 10.267L8.70289 13.572L7.75389 18.345L12.0009 15.968Z" fill="white"/>
</g>
<defs>
<clipPath id="clip0_437_29612">
<rect width="24" height="24" fill="white"/>
</clipPath>
</defs>
</svg>
