<svg width="40" height="40" viewBox="0 0 40 40" fill="none" xmlns="http://www.w3.org/2000/svg">
<g id="Star">
<g id="Star-Icon">
<rect id="Shape" x="0.5" y="0.5" width="39" height="39" rx="15.5" stroke="#303A46"/>
<path id="Vector" d="M19.515 25.3626L14.9087 27.9411C14.1641 28.3579 13.2731 27.7106 13.4394 26.8736L14.468 21.6958L10.5918 18.1115C9.96527 17.5322 10.3056 16.4847 11.1529 16.3842L16.3954 15.7625L18.607 10.9684C18.9644 10.1936 20.0656 10.1936 20.4231 10.9684L22.6346 15.7625L27.8771 16.3842C28.7245 16.4847 29.0648 17.5322 28.4382 18.1115L24.562 21.6958L25.5907 26.8736C25.7569 27.7106 24.866 28.3579 24.1214 27.9411L19.515 25.3626ZM19.515 23.251L23.4279 25.4409L22.5535 21.0435L25.8454 17.9985L21.3927 17.4706L19.515 13.3993L17.6374 17.4715L13.1846 17.9985L16.4765 21.0435L15.6022 25.4409L19.515 23.251Z" fill="#A4A8AB"/>
</g>
</g>
</svg>
