<svg width="62" height="62" viewBox="0 0 62 62" fill="none" xmlns="http://www.w3.org/2000/svg">
<g id="Swap">
<g id="Circle">
<path id="Vector" d="M48 31C48 21.6112 40.3888 14 31 14C21.6112 14 14 21.6112 14 31C14 40.3888 21.6112 48 31 48C40.3888 48 48 40.3888 48 31Z" fill="#0CAF60"/>
<path id="Vector_2" d="M55 31C55 17.7452 44.2548 7 31 7C17.7452 7 7 17.7452 7 31C7 44.2548 17.7452 55 31 55C44.2548 55 55 44.2548 55 31Z" stroke="#161D26" stroke-width="14"/>
</g>
<g id="Exchage-Icon">
<path id="Path 56640" d="M26 32H35V34H31V37L26 32ZM31 28V25L36 30H27V28H31Z" fill="white"/>
</g>
</g>
</svg>
