<svg width="20" height="20" viewBox="0 0 20 20" fill="none" xmlns="http://www.w3.org/2000/svg">
<g id="Tags-Icon" clip-path="url(#clip0_437_28881)">
<path id="Vector" d="M9.08256 1.75L17.3317 2.92917L18.5101 11.1792L10.8501 18.8392C10.6938 18.9954 10.4819 19.0832 10.2609 19.0832C10.0399 19.0832 9.828 18.9954 9.67172 18.8392L1.42172 10.5892C1.2655 10.4329 1.17773 10.221 1.17773 10C1.17773 9.77903 1.2655 9.56711 1.42172 9.41083L9.08256 1.75ZM9.67172 3.51833L3.18922 10L10.2609 17.0708L16.7426 10.5892L15.8592 4.40167L9.67172 3.51833ZM11.4384 8.82167C11.1258 8.50893 10.9502 8.08482 10.9503 7.64262C10.9503 7.42367 10.9935 7.20687 11.0773 7.0046C11.1611 6.80233 11.284 6.61855 11.4388 6.46375C11.5937 6.30895 11.7775 6.18617 11.9798 6.10242C12.1821 6.01867 12.3989 5.97558 12.6179 5.97562C13.06 5.9757 13.4841 6.15143 13.7967 6.46417C14.1093 6.7769 14.2849 7.20102 14.2849 7.64321C14.2848 8.08541 14.109 8.50946 13.7963 8.82208C13.4836 9.13471 13.0595 9.31029 12.6173 9.31021C12.1751 9.31014 11.751 9.1344 11.4384 8.82167Z" fill="white"/>
</g>
<defs>
<clipPath id="clip0_437_28881">
<rect width="20" height="20" fill="white"/>
</clipPath>
</defs>
</svg>
