<svg width="15" height="15" viewBox="0 0 15 15" fill="none" xmlns="http://www.w3.org/2000/svg">
<path id="Path 66476" d="M1.10722 8.63898L10.7612 8.63898L6.99123 12.379C6.77927 12.5965 6.66064 12.8882 6.66064 13.192C6.66064 13.4957 6.77927 13.7875 6.99123 14.005C7.20591 14.217 7.49549 14.3359 7.79723 14.3359C8.09896 14.3359 8.38855 14.217 8.60323 14.005L14.3352 8.305C14.5403 8.0869 14.6544 7.79885 14.6544 7.49951C14.6544 7.20018 14.5403 6.91207 14.3352 6.69397L8.60323 0.993959C8.38855 0.781929 8.09896 0.663087 7.79723 0.663087C7.49549 0.663087 7.20591 0.781928 6.99123 0.993959C6.78409 1.20969 6.66498 1.49504 6.65723 1.79401C6.66017 2.09575 6.77988 2.3846 6.99123 2.59998L10.7612 6.35498L1.10722 6.35498C0.810591 6.36377 0.52905 6.48776 0.322336 6.70068C0.115621 6.91361 1.24791e-06 7.19872 1.19602e-06 7.49548C1.14414e-06 7.79225 0.115621 8.07736 0.322335 8.29028C0.52905 8.50321 0.810591 8.6272 1.10722 8.63599L1.10722 8.63898Z" fill="white"/>
</svg>
