<svg width="24" height="25" viewBox="0 0 24 25" fill="none" xmlns="http://www.w3.org/2000/svg">
<g id="Frame" clip-path="url(#clip0_803_15130)">
<path id="Vector" d="M5 9.14062C5.26522 9.14062 5.51957 9.24763 5.70711 9.4381C5.89464 9.62856 6 9.88689 6 10.1562C7.57114 10.1539 9.09698 10.6907 10.33 11.6797H12.5C13.833 11.6797 15.03 12.2688 15.854 13.2031H19C19.9453 13.2029 20.8712 13.4747 21.6705 13.9872C22.4698 14.4997 23.1097 15.2318 23.516 16.0987C21.151 19.2684 17.322 21.3281 13 21.3281C10.21 21.3281 7.85 20.7157 5.94 19.6442C5.87004 19.8403 5.74224 20.0097 5.57402 20.1293C5.40579 20.2489 5.20534 20.3129 5 20.3125H2C1.73478 20.3125 1.48043 20.2055 1.29289 20.015C1.10536 19.8246 1 19.5662 1 19.2969V10.1562C1 9.88689 1.10536 9.62856 1.29289 9.4381C1.48043 9.24763 1.73478 9.14062 2 9.14062H5ZM6.001 12.1875L6 17.288L6.045 17.3205C7.84 18.6002 10.178 19.2969 13 19.2969C16.004 19.2969 18.799 18.1228 20.835 16.118L20.968 15.9829L20.848 15.8813C20.3758 15.5057 19.8034 15.2828 19.205 15.2415L19 15.2344H16.889C16.961 15.5614 17 15.9006 17 16.25V17.2656H8V15.2344L14.79 15.2334L14.756 15.1541C14.5644 14.7474 14.2696 14.3998 13.9019 14.1471C13.5343 13.8944 13.107 13.7456 12.664 13.716L12.5 13.7109H9.57C9.10531 13.2282 8.55027 12.8448 7.93752 12.5832C7.32477 12.3215 6.66669 12.187 6.002 12.1875H6.001ZM4 11.1719H3V18.2812H4V11.1719ZM18 5.07812C18.7956 5.07812 19.5587 5.39913 20.1213 5.97053C20.6839 6.54193 21 7.31692 21 8.125C21 8.93308 20.6839 9.70807 20.1213 10.2795C19.5587 10.8509 18.7956 11.1719 18 11.1719C17.2044 11.1719 16.4413 10.8509 15.8787 10.2795C15.3161 9.70807 15 8.93308 15 8.125C15 7.31692 15.3161 6.54193 15.8787 5.97053C16.4413 5.39913 17.2044 5.07812 18 5.07812ZM18 7.10938C17.7348 7.10938 17.4804 7.21638 17.2929 7.40685C17.1054 7.59731 17 7.85564 17 8.125C17 8.39436 17.1054 8.65269 17.2929 8.84315C17.4804 9.03362 17.7348 9.14062 18 9.14062C18.2652 9.14062 18.5196 9.03362 18.7071 8.84315C18.8946 8.65269 19 8.39436 19 8.125C19 7.85564 18.8946 7.59731 18.7071 7.40685C18.5196 7.21638 18.2652 7.10938 18 7.10938ZM11 2.03125C11.7956 2.03125 12.5587 2.35226 13.1213 2.92366C13.6839 3.49506 14 4.27004 14 5.07812C14 5.88621 13.6839 6.66119 13.1213 7.23259C12.5587 7.80399 11.7956 8.125 11 8.125C10.2044 8.125 9.44129 7.80399 8.87868 7.23259C8.31607 6.66119 8 5.88621 8 5.07812C8 4.27004 8.31607 3.49506 8.87868 2.92366C9.44129 2.35226 10.2044 2.03125 11 2.03125ZM11 4.0625C10.7348 4.0625 10.4804 4.1695 10.2929 4.35997C10.1054 4.55044 10 4.80876 10 5.07812C10 5.34749 10.1054 5.60581 10.2929 5.79628C10.4804 5.98675 10.7348 6.09375 11 6.09375C11.2652 6.09375 11.5196 5.98675 11.7071 5.79628C11.8946 5.60581 12 5.34749 12 5.07812C12 4.80876 11.8946 4.55044 11.7071 4.35997C11.5196 4.1695 11.2652 4.0625 11 4.0625Z" fill="#0CAF60"/>
</g>
<defs>
<clipPath id="clip0_803_15130">
<rect width="24" height="24.375" fill="white"/>
</clipPath>
</defs>
</svg>
