<svg width="32" height="32" viewBox="0 0 32 32" fill="none" xmlns="http://www.w3.org/2000/svg">
<g id="trx" clip-path="url(#clip0_437_31056)">
<g id="Group">
<path id="Vector" d="M16 32C24.8366 32 32 24.8366 32 16C32 7.16344 24.8366 0 16 0C7.16344 0 0 7.16344 0 16C0 24.8366 7.16344 32 16 32Z" fill="#EF0027"/>
<path id="Vector_2" d="M21.932 9.91381L7.5 7.25781L15.095 26.3698L25.678 13.4758L21.932 9.91381ZM21.7 11.0838L23.908 13.1828L17.87 14.2758L21.7 11.0838ZM16.558 14.0568L10.194 8.77881L20.596 10.6928L16.558 14.0568ZM16.105 14.9908L15.067 23.5708L9.472 9.48781L16.105 14.9898V14.9908ZM17.065 15.4458L23.752 14.2358L16.082 23.5788L17.065 15.4458Z" fill="white"/>
</g>
</g>
<defs>
<clipPath id="clip0_437_31056">
<rect width="32" height="32" fill="white"/>
</clipPath>
</defs>
</svg>
