<svg width="16" height="17" viewBox="0 0 16 17" fill="none" xmlns="http://www.w3.org/2000/svg">
<g id="Twitter" clip-path="url(#clip0_615_16315)">
<path id="Vector" d="M10.1997 4.19943C9.693 4.19934 9.20653 4.39817 8.84496 4.75314C8.48338 5.1081 8.27561 5.59082 8.26635 6.09743L8.24769 7.14743C8.24659 7.2038 8.23359 7.25931 8.20954 7.31031C8.18549 7.36131 8.15092 7.40664 8.10812 7.44334C8.06531 7.48005 8.01522 7.50728 7.96115 7.52327C7.90708 7.53925 7.85024 7.54362 7.79435 7.53609L6.75369 7.39476C5.38435 7.20809 4.07235 6.57743 2.81369 5.52876C2.41502 7.73542 3.19369 9.26409 5.06902 10.4434L6.23369 11.1754C6.28902 11.2102 6.335 11.258 6.36759 11.3147C6.40017 11.3713 6.41838 11.4351 6.42062 11.5004C6.42285 11.5657 6.40905 11.6306 6.38042 11.6894C6.35178 11.7481 6.30918 11.7989 6.25635 11.8374L5.19502 12.6128C5.82635 12.6521 6.42569 12.6241 6.92302 12.5254C10.0684 11.8974 12.1597 9.53076 12.1597 5.62676C12.1597 5.30809 11.485 4.19943 10.1997 4.19943ZM6.93302 6.07276C6.94466 5.43013 7.14561 4.8052 7.51073 4.27624C7.87584 3.74727 8.38889 3.33777 8.98563 3.099C9.58237 2.86023 10.2363 2.80281 10.8655 2.93392C11.4947 3.06504 12.0713 3.37886 12.523 3.83609C12.997 3.83276 13.4004 3.95276 14.3024 3.40609C14.079 4.49943 13.969 4.97409 13.493 5.62676C13.493 10.7214 10.3617 13.1988 7.18435 13.8328C5.00569 14.2674 1.83769 13.5534 0.929688 12.6054C1.39235 12.5694 3.27235 12.3674 4.35902 11.5721C3.43969 10.9661 -0.219646 8.81276 2.18502 3.02343C3.31369 4.34143 4.45835 5.23876 5.61835 5.71476C6.39035 6.03142 6.57969 6.02476 6.93369 6.07343L6.93302 6.07276Z" fill="#A4A8AB"/>
</g>
<defs>
<clipPath id="clip0_615_16315">
<rect width="16" height="16" fill="white" transform="translate(0 0.5)"/>
</clipPath>
</defs>
</svg>
