<svg width="32" height="32" viewBox="0 0 32 32" fill="none" xmlns="http://www.w3.org/2000/svg">
<g id="uni" clip-path="url(#clip0_437_31037)">
<g id="Group">
<path id="Vector" d="M16 32C24.8366 32 32 24.8366 32 16C32 7.16344 24.8366 0 16 0C7.16344 0 0 7.16344 0 16C0 24.8366 7.16344 32 16 32Z" fill="#FF007A"/>
<g id="Group_2">
<path id="Vector_2" d="M12.2613 5.76675C11.9763 5.72275 11.9643 5.71675 12.0983 5.69675C12.3553 5.65675 12.9633 5.71175 13.3823 5.81075C14.3593 6.04375 15.2483 6.63875 16.1983 7.69575L16.4503 7.97575L16.8103 7.91875C18.3303 7.67375 19.8773 7.86875 21.1703 8.46575C21.5263 8.62975 22.0873 8.95675 22.1573 9.04175C22.1803 9.06775 22.2213 9.24075 22.2483 9.42475C22.3443 10.0617 22.2963 10.5497 22.1023 10.9147C21.9963 11.1127 21.9903 11.1747 22.0613 11.3447C22.095 11.415 22.1477 11.4743 22.2135 11.516C22.2792 11.5578 22.3554 11.5802 22.4333 11.5807C22.7553 11.5807 23.1013 11.0607 23.2613 10.3377L23.3253 10.0507L23.4513 10.1937C24.1433 10.9777 24.6863 12.0467 24.7793 12.8067L24.8043 13.0057L24.6873 12.8257C24.4873 12.5157 24.2873 12.3037 24.0293 12.1327C23.5653 11.8257 23.0743 11.7217 21.7743 11.6527C20.6003 11.5907 19.9353 11.4907 19.2773 11.2757C18.1563 10.9107 17.5913 10.4237 16.2593 8.67675C15.6683 7.90075 15.3023 7.47175 14.9393 7.12675C14.1123 6.34075 13.3003 5.92875 12.2613 5.76675Z" fill="white"/>
<path id="Vector_3" d="M22.4227 7.49966C22.4527 6.97966 22.5227 6.63666 22.6647 6.32366C22.7207 6.19966 22.7737 6.09766 22.7817 6.09766C22.7728 6.16785 22.7543 6.23649 22.7267 6.30166C22.6237 6.60566 22.6067 7.02166 22.6777 7.50466C22.7677 8.11866 22.8197 8.20666 23.4677 8.86966C23.7727 9.18066 24.1267 9.57266 24.2547 9.74166L24.4877 10.0477L24.2547 9.82866C23.9697 9.56166 23.3137 9.03866 23.1687 8.96466C23.0717 8.91466 23.0567 8.91566 22.9967 8.97466C22.9417 9.03066 22.9297 9.11266 22.9227 9.50366C22.9107 10.1117 22.8277 10.5037 22.6267 10.8937C22.5187 11.1037 22.5017 11.0597 22.5997 10.8207C22.6727 10.6427 22.6797 10.5647 22.6797 9.97566C22.6797 8.79166 22.5387 8.50766 21.7137 8.01966C21.4654 7.87561 21.2105 7.74346 20.9497 7.62366C20.8208 7.57197 20.6959 7.51115 20.5757 7.44166C20.5987 7.41866 21.4027 7.65266 21.7257 7.77766C22.2077 7.96266 22.2867 7.98666 22.3457 7.96366C22.3847 7.94866 22.4037 7.83466 22.4227 7.49966ZM12.8157 9.52466C12.2367 8.72766 11.8787 7.50466 11.9557 6.59066L11.9797 6.30766L12.1117 6.33166C12.3597 6.37666 12.7867 6.53566 12.9867 6.65766C13.5347 6.99066 13.7727 7.42966 14.0137 8.55566C14.0847 8.88566 14.1777 9.25866 14.2207 9.38566C14.2887 9.58866 14.5487 10.0637 14.7607 10.3727C14.9127 10.5947 14.8107 10.6997 14.4747 10.6697C13.9607 10.6227 13.2647 10.1427 12.8157 9.52466ZM21.7207 15.4597C19.0137 14.3697 18.0607 13.4237 18.0607 11.8277C18.0607 11.5927 18.0687 11.4007 18.0777 11.4007C18.0877 11.4007 18.1927 11.4777 18.3107 11.5727C18.8597 12.0127 19.4747 12.2007 21.1757 12.4487C22.1767 12.5957 22.7407 12.7137 23.2607 12.8857C24.9127 13.4337 25.9347 14.5457 26.1787 16.0597C26.2487 16.4997 26.2077 17.3247 26.0927 17.7597C26.0027 18.1037 25.7257 18.7227 25.6527 18.7467C25.6327 18.7527 25.6127 18.6757 25.6067 18.5687C25.5787 18.0007 25.2917 17.4467 24.8087 17.0317C24.2597 16.5607 23.5227 16.1847 21.7197 15.4597H21.7207ZM19.8207 15.9117C19.7887 15.7185 19.745 15.5275 19.6897 15.3397L19.6197 15.1337L19.7487 15.2777C19.9257 15.4777 20.0667 15.7317 20.1847 16.0717C20.2757 16.3307 20.2857 16.4077 20.2847 16.8287C20.2847 17.2427 20.2737 17.3287 20.1897 17.5627C20.0729 17.9058 19.8773 18.2167 19.6187 18.4707C19.1237 18.9747 18.4887 19.2527 17.5707 19.3687C17.4107 19.3887 16.9467 19.4227 16.5377 19.4437C15.5077 19.4977 14.8307 19.6077 14.2217 19.8217C14.1668 19.8463 14.1078 19.8605 14.0477 19.8637C14.0237 19.8387 14.4377 19.5917 14.7807 19.4267C15.2637 19.1937 15.7437 19.0667 16.8207 18.8877C17.3527 18.7987 17.9027 18.6917 18.0417 18.6487C19.3597 18.2447 20.0367 17.2027 19.8197 15.9117H19.8207Z" fill="white"/>
<path id="Vector_4" d="M21.0607 18.1147C20.7007 17.3417 20.6187 16.5947 20.8157 15.8987C20.8367 15.8247 20.8707 15.7637 20.8907 15.7637C20.9584 15.7882 21.0221 15.8225 21.0797 15.8657C21.2457 15.9777 21.5777 16.1657 22.4627 16.6477C23.5677 17.2507 24.1977 17.7177 24.6267 18.2497C25.0017 18.7167 25.2337 19.2487 25.3457 19.8967C25.4087 20.2637 25.3717 21.1467 25.2777 21.5167C24.9807 22.6827 24.2897 23.5987 23.3057 24.1327C23.2129 24.1864 23.1167 24.2342 23.0177 24.2757C23.0037 24.2757 23.0557 24.1427 23.1347 23.9787C23.4647 23.2867 23.5037 22.6127 23.2527 21.8627C23.0997 21.4037 22.7867 20.8427 22.1557 19.8967C21.4217 18.7967 21.2417 18.5027 21.0607 18.1147ZM10.8937 22.2857C11.8987 21.4377 13.1477 20.8357 14.2867 20.6507C14.7767 20.5707 15.5947 20.6027 16.0487 20.7187C16.7767 20.9047 17.4287 21.3227 17.7677 21.8197C18.0977 22.3057 18.2407 22.7297 18.3877 23.6717C18.4477 24.0437 18.5107 24.4167 18.5297 24.5017C18.6397 24.9897 18.8567 25.3807 19.1247 25.5767C19.5497 25.8877 20.2827 25.9067 21.0027 25.6267C21.078 25.5921 21.1573 25.5673 21.2387 25.5527C21.2647 25.5787 20.9027 25.8217 20.6467 25.9497C20.3446 26.1113 20.0063 26.1932 19.6637 26.1877C19.0037 26.1877 18.4557 25.8527 17.9987 25.1677C17.9087 25.0327 17.7067 24.6297 17.5487 24.2707C17.0667 23.1707 16.8287 22.8347 16.2687 22.4677C15.7797 22.1477 15.1507 22.0907 14.6777 22.3227C14.0557 22.6277 13.8827 23.4227 14.3277 23.9257C14.5047 24.1257 14.8347 24.2987 15.1047 24.3317C15.2225 24.3473 15.3423 24.3374 15.4559 24.3028C15.5696 24.2681 15.6744 24.2094 15.7635 24.1307C15.8525 24.0521 15.9236 23.9552 15.9719 23.8467C16.0203 23.7381 16.0448 23.6205 16.0437 23.5017C16.0437 23.1697 15.9157 22.9817 15.5957 22.8367C15.1587 22.6397 14.6887 22.8697 14.6907 23.2807C14.6917 23.4557 14.7677 23.5657 14.9437 23.6457C15.0567 23.6957 15.0587 23.7007 14.9667 23.6817C14.5657 23.5977 14.4717 23.1147 14.7947 22.7937C15.1817 22.4077 15.9827 22.5777 16.2577 23.1037C16.3737 23.3247 16.3867 23.7657 16.2857 24.0317C16.0607 24.6267 15.4027 24.9387 14.7357 24.7687C14.2817 24.6527 14.0967 24.5277 13.5497 23.9637C12.5987 22.9837 12.2297 22.7937 10.8577 22.5797L10.5947 22.5387L10.8947 22.2857H10.8937Z" fill="white"/>
<path id="Vector_5" fill-rule="evenodd" clip-rule="evenodd" d="M6.19629 3.34955L6.29229 3.46655C10.0003 8.00655 11.9163 10.3625 12.0383 10.5305C12.2383 10.8085 12.1633 11.0575 11.8193 11.2535C11.6283 11.3625 11.2343 11.4725 11.0383 11.4725C10.8153 11.4725 10.5643 11.3655 10.3813 11.1925C10.2523 11.0695 9.73129 10.2915 8.52829 8.42455C7.96494 7.54214 7.39426 6.66444 6.81629 5.79155C6.76729 5.74555 6.76829 5.74655 8.43429 8.72755C9.48029 10.5995 9.83429 11.2605 9.83429 11.3495C9.83429 11.5295 9.78429 11.6235 9.56229 11.8715C9.19229 12.2845 9.02729 12.7485 8.90729 13.7085C8.77329 14.7855 8.39729 15.5455 7.35329 16.8465C6.74329 17.6085 6.64329 17.7485 6.48829 18.0555C6.29429 18.4415 6.24129 18.6585 6.21929 19.1465C6.19629 19.6625 6.24129 19.9965 6.39929 20.4895C6.53729 20.9215 6.68129 21.2075 7.04929 21.7775C7.36729 22.2705 7.55029 22.6365 7.55029 22.7795C7.55029 22.8935 7.57229 22.8935 8.06529 22.7825C9.24429 22.5165 10.2013 22.0475 10.7403 21.4735C11.0733 21.1185 11.1513 20.9225 11.1543 20.4355C11.1553 20.1175 11.1443 20.0505 11.0583 19.8675C10.9183 19.5695 10.6633 19.3215 10.1013 18.9375C9.36429 18.4335 9.05029 18.0275 8.96329 17.4705C8.89129 17.0135 8.97429 16.6905 9.38229 15.8365C9.80329 14.9525 9.90829 14.5765 9.97929 13.6855C10.0243 13.1095 10.0873 12.8825 10.2533 12.7005C10.4253 12.5105 10.5813 12.4455 11.0083 12.3875C11.7043 12.2925 12.1473 12.1125 12.5113 11.7775C12.8273 11.4855 12.9593 11.2045 12.9793 10.7825L12.9953 10.4625L12.8183 10.2565C12.5643 9.96055 10.4633 7.64255 6.51429 3.30055L6.40829 3.18555L6.19629 3.35055V3.34955ZM7.91029 19.7315C7.98005 19.608 8.00089 19.4628 7.96866 19.3246C7.93644 19.1865 7.85351 19.0655 7.73629 18.9855C7.50829 18.8335 7.15329 18.9055 7.15329 19.1035C7.15329 19.1635 7.18629 19.2075 7.26129 19.2465C7.38829 19.3115 7.39729 19.3855 7.29829 19.5345C7.19729 19.6865 7.20529 19.8205 7.32129 19.9115C7.50729 20.0575 7.77129 19.9765 7.91129 19.7315H7.91029ZM13.4343 12.5555C13.1073 12.6555 12.7903 13.0025 12.6913 13.3655C12.6313 13.5865 12.6653 13.9755 12.7553 14.0955C12.9003 14.2895 13.0413 14.3405 13.4213 14.3375C14.1653 14.3325 14.8113 14.0135 14.8873 13.6145C14.9493 13.2875 14.6643 12.8345 14.2733 12.6345C14.0713 12.5325 13.6423 12.4915 13.4343 12.5555ZM14.3043 13.2355C14.4193 13.0725 14.3683 12.8955 14.1743 12.7775C13.8023 12.5505 13.2403 12.7375 13.2403 13.0895C13.2403 13.2635 13.5333 13.4545 13.8013 13.4545C13.9813 13.4545 14.2253 13.3475 14.3043 13.2355Z" fill="white"/>
</g>
</g>
</g>
<defs>
<clipPath id="clip0_437_31037">
<rect width="32" height="32" fill="white"/>
</clipPath>
</defs>
</svg>
