<svg width="24" height="25" viewBox="0 0 24 25" fill="none" xmlns="http://www.w3.org/2000/svg">
<g id="Frame" clip-path="url(#clip0_437_28574)">
<path id="Vector" d="M12 24.5C18.6274 24.5 24 19.1274 24 12.5C24 5.87258 18.6274 0.5 12 0.5C5.37258 0.5 0 5.87258 0 12.5C0 19.1274 5.37258 24.5 12 24.5Z" fill="#16C784"/>
<path id="Vector_2" d="M11.4758 19.5H12.5547L12.5598 18.2477C14.743 18.0781 15.9949 16.7875 16 14.9555C15.9949 13.0141 14.5038 12.1281 12.9364 11.7289L12.6005 11.6359L12.6209 8.51328C13.4351 8.66641 13.9593 9.19141 14.0407 9.97891H15.8575C15.827 8.23984 14.5547 6.97109 12.631 6.77422L12.6361 5.5H11.5573L11.5522 6.77422C9.64377 6.98203 8.26972 8.23984 8.27481 10.05C8.27481 11.6578 9.33842 12.582 11.0534 13.0578L11.5115 13.1836L11.4911 16.4922C10.5802 16.3391 9.92366 15.7812 9.85751 14.7914H8C8.07125 16.8422 9.38422 18.0617 11.4809 18.2477L11.4758 19.5ZM12.57 16.4922L12.5903 13.4898C13.5165 13.7797 14.1069 14.1625 14.112 14.9391C14.1069 15.7484 13.5013 16.3281 12.57 16.4922ZM11.5216 11.3406C10.8193 11.1 10.1781 10.7008 10.1883 9.92422C10.1934 9.21875 10.687 8.67188 11.542 8.51328L11.5216 11.3406Z" fill="white"/>
</g>
<defs>
<clipPath id="clip0_437_28574">
<rect width="24" height="24" fill="white" transform="translate(0 0.5)"/>
</clipPath>
</defs>
</svg>
