<svg width="32" height="32" viewBox="0 0 32 32" fill="none" xmlns="http://www.w3.org/2000/svg">
<g id="usdt">
<path id="Ellipse 2806" d="M16 32C24.8366 32 32 24.8366 32 16C32 7.16344 24.8366 0 16 0C7.16344 0 0 7.16344 0 16C0 24.8366 7.16344 32 16 32Z" fill="#26A17B"/>
<path id="Path 57787" fill-rule="evenodd" clip-rule="evenodd" d="M17.9217 17.3824C17.8117 17.3904 17.2447 17.4244 15.9797 17.4244C14.9697 17.4244 14.2587 17.3944 14.0087 17.3824C10.1207 17.2114 7.21869 16.5344 7.21869 15.7244C7.21869 14.9144 10.1187 14.2384 14.0087 14.0644V16.7094C14.2627 16.7274 14.9907 16.7704 15.9967 16.7704C17.2037 16.7704 17.8087 16.7204 17.9217 16.7104V14.0674C21.8017 14.2404 24.6967 14.9174 24.6967 15.7254C24.6967 16.5334 21.7967 17.2104 17.9217 17.3824ZM17.9217 13.7924V11.4264H23.3357V7.81836H8.59969V11.4264H14.0137V13.7914C9.61369 13.9914 6.30469 14.8654 6.30469 15.9094C6.30469 16.9534 9.61369 17.8244 14.0137 18.0274V25.6094H17.9267V18.0254C22.3197 17.8254 25.6207 16.9524 25.6207 15.9094C25.6207 14.8664 22.3207 13.9954 17.9267 13.7924" fill="white"/>
</g>
</svg>
