<svg width="10" height="11" viewBox="0 0 10 11" fill="none" xmlns="http://www.w3.org/2000/svg">
<g id="Frame" clip-path="url(#clip0_615_16353)">
<path id="Vector" d="M5.00065 9.66732C2.6994 9.66732 0.833984 7.8019 0.833984 5.50065C0.833984 3.1994 2.6994 1.33398 5.00065 1.33398C7.3019 1.33398 9.16732 3.1994 9.16732 5.50065C9.16732 7.8019 7.3019 9.66732 5.00065 9.66732ZM5.00065 8.83398C5.88471 8.83398 6.73255 8.48279 7.35767 7.85767C7.98279 7.23255 8.33398 6.38471 8.33398 5.50065C8.33398 4.6166 7.98279 3.76875 7.35767 3.14363C6.73255 2.51851 5.88471 2.16732 5.00065 2.16732C4.1166 2.16732 3.26875 2.51851 2.64363 3.14363C2.01851 3.76875 1.66732 4.6166 1.66732 5.50065C1.66732 6.38471 2.01851 7.23255 2.64363 7.85767C3.26875 8.48279 4.1166 8.83398 5.00065 8.83398ZM4.58398 6.75065H5.41732V7.58398H4.58398V6.75065ZM4.58398 3.41732H5.41732V5.91732H4.58398V3.41732Z" fill="#A4A8AB"/>
</g>
<defs>
<clipPath id="clip0_615_16353">
<rect width="10" height="10" fill="white" transform="translate(0 0.5)"/>
</clipPath>
</defs>
</svg>
